<svg width="141" height="41" viewBox="0 0 141 41" fill="none" xmlns="http://www.w3.org/2000/svg">
<path fill-rule="evenodd" clip-rule="evenodd" d="M31.0838 26.7947C30.2341 28.678 29.8275 29.5185 28.734 31.1828C27.2074 33.5072 25.0565 36.4009 22.3914 36.4251C20.0226 36.447 19.4146 34.8832 16.2004 34.901C12.9863 34.9186 12.3149 36.4525 9.94594 36.4309C7.28053 36.4063 5.24229 33.7929 3.71589 31.4697C-0.552111 24.9719 -0.998015 17.3463 1.6338 13.2924C3.50467 10.4114 6.45493 8.72489 9.23003 8.72489C12.055 8.72489 13.831 10.2744 16.1667 10.2744C18.4323 10.2744 19.8136 8.7224 23.0793 8.7224C25.5481 8.7224 28.164 10.0665 30.028 12.392C23.9211 15.7387 24.9129 24.4627 31.0838 26.7947Z" fill="#EE5646"/>
<path fill-rule="evenodd" clip-rule="evenodd" d="M20.6018 6.12665C21.7877 4.60355 22.6895 2.45152 22.3625 0.253132C20.4246 0.386595 18.1565 1.62 16.8324 3.22803C15.6307 4.68814 14.6389 6.8533 15.0252 8.95728C17.1412 9.02277 19.3305 7.75878 20.6018 6.12665Z" fill="#EE5646"/>
<path fill-rule="evenodd" clip-rule="evenodd" d="M61.2452 24.6201C60.5406 24.6201 59.9038 24.8523 59.3281 25.3198C58.7529 25.7937 58.3775 26.4071 58.1999 27.1667C58.113 27.5227 58.0674 27.8112 58.0674 28.0424V30.1843C58.0674 31.1218 58.3511 31.9145 58.9284 32.5589C59.5011 33.1972 60.2493 33.5215 61.1656 33.5215C62.24 33.5215 63.085 33.1092 63.6841 32.2773C64.2842 31.4469 64.5818 30.3528 64.5818 28.9896C64.5818 27.7392 64.3031 26.7053 63.7375 25.8954C63.1166 25.0517 62.2882 24.6201 61.2452 24.6201ZM113.576 24.4421C112.432 24.4421 111.557 24.95 110.96 25.9728C110.443 26.8145 110.189 27.8421 110.189 29.0573C110.189 30.2418 110.443 31.2515 110.96 32.0951C111.572 33.116 112.438 33.624 113.555 33.624C114.642 33.624 115.503 33.1092 116.117 32.0634C116.65 31.2093 116.916 30.1843 116.916 29.0081C116.916 27.8303 116.661 26.8145 116.152 25.9728C115.543 24.95 114.69 24.4421 113.576 24.4421ZM75.3881 24.6201C74.6796 24.6201 74.0466 24.8523 73.4703 25.3198C72.8967 25.7937 72.5099 26.4071 72.3323 27.1667C72.2442 27.5227 72.193 27.8112 72.193 28.0424V30.1843C72.193 31.1218 72.4854 31.9145 73.0617 32.5589C73.6342 33.1972 74.3863 33.5215 75.3 33.5215C76.3827 33.5215 77.2222 33.1092 77.8232 32.2773C78.4248 31.4469 78.7275 30.3528 78.7275 28.9896C78.7275 27.7392 78.4435 26.7053 77.8805 25.8954C77.2581 25.0517 76.4281 24.6201 75.3881 24.6201ZM45.8365 20.0403H45.7865C45.6067 20.8713 45.3281 21.9774 44.9363 23.4625L43.4529 28.1843H48.2443L46.7414 23.4625C46.5788 22.9836 46.2756 21.7023 45.8365 20.0403ZM135.266 24.3018C134.333 24.3018 133.574 24.7801 132.989 25.5523C132.513 26.1688 132.227 26.8547 132.141 27.8519H138.099C138.114 26.8547 137.933 26.1979 137.545 25.5766C137.049 24.7851 136.288 24.3018 135.266 24.3018ZM50.4185 35.3312L48.7519 30.1788H42.9511L41.3602 35.3312H38.3975L44.1384 17.5472H47.6906L53.4662 35.3312H50.4185ZM65.712 34.0816C64.649 35.2068 63.3217 35.7722 61.7439 35.7722C60.0357 35.7722 58.8984 35.1644 58.0674 33.9415V40.8159H55.2423V26.8387C55.2423 25.4629 55.1768 24.1954 55.1044 22.5334H57.6201L57.7779 24.694H57.828C58.7863 23.1982 60.2313 22.3732 62.176 22.3732C63.6941 22.3732 64.9574 22.9569 65.9784 24.1604C66.9902 25.358 67.4995 26.9363 67.4995 28.8947C67.4995 31.0899 66.9051 32.8077 65.712 34.0816ZM79.8511 34.0816C78.7854 35.2068 77.4559 35.7722 75.874 35.7722C74.1708 35.7722 73.024 35.1644 72.193 33.9415V40.8159H69.3679V26.8387C69.3679 25.4629 69.3154 24.1954 69.2466 22.5334H71.7553L71.9208 24.694H71.97C72.9299 23.1982 74.3724 22.3732 76.3141 22.3732C77.8331 22.3732 79.0998 22.9569 80.1147 24.1604C81.1322 25.358 81.6387 26.9363 81.6387 28.8947C81.6387 31.0899 81.0441 32.8077 79.8511 34.0816ZM96.3746 34.1813C95.207 35.2246 93.5882 35.7432 91.5115 35.7432C89.587 35.7432 88.0481 35.3706 86.8861 34.6324L87.5504 32.2494C88.8027 32.9875 90.1787 33.3621 91.6759 33.3621C92.7576 33.3621 93.5938 33.116 94.1947 32.6341C94.7917 32.1503 95.0921 31.5021 95.0921 30.6797C95.0921 29.9657 94.8447 29.3561 94.3534 28.8588C93.8546 28.3655 93.0403 27.9098 91.8914 27.482C88.7698 26.32 87.2062 24.6163 87.2062 22.3743C87.2062 20.9094 87.7515 19.7049 88.8569 18.7702C89.9604 17.8368 91.421 17.3672 93.2412 17.3672C94.8643 17.3672 96.216 17.6519 97.2947 18.213L96.573 20.5447C95.5669 19.9989 94.4234 19.7222 93.1479 19.7222C92.1397 19.7222 91.3492 19.9788 90.7803 20.4616C90.305 20.9094 90.0661 21.4476 90.0661 22.081C90.0661 22.7825 90.3401 23.3679 90.8862 23.8336C91.3643 24.2554 92.2296 24.7118 93.4785 25.2056C95.0197 25.8189 96.1454 26.5472 96.872 27.3796C97.5935 28.2088 97.9573 29.2401 97.9573 30.4738C97.9573 31.9939 97.4262 33.2332 96.3746 34.1813ZM106.427 24.8602H103.436V31.009C103.436 32.5968 103.928 33.3839 105.041 33.3839C105.552 33.3839 105.939 33.3467 106.277 33.2592L106.341 35.4257C105.776 35.6377 105.027 35.745 104.109 35.745C102.985 35.745 102.066 35.4053 101.432 34.7117C100.791 34.0264 100.444 32.8685 100.444 31.244V24.8602H98.6162V22.5334H100.444V20.2535L103.436 19.4059V22.5334H106.427V24.8602ZM118.189 33.8167C117.003 35.1199 115.432 35.7722 113.477 35.7722C111.585 35.7722 110.075 35.146 108.955 33.892C107.836 32.642 107.278 31.0554 107.278 29.151C107.278 27.158 107.854 25.5226 109.01 24.2534C110.168 22.9771 111.722 22.35 113.681 22.35C115.577 22.35 117.094 22.9703 118.241 24.23C119.333 25.4413 119.88 27.0177 119.88 28.9401C119.88 30.9236 119.319 32.5416 118.189 33.8167ZM128.529 25.1243C128.363 25.0728 127.922 25.0517 127.607 25.0517C126.601 25.0517 125.815 25.4308 125.266 26.1886C124.788 26.8609 124.541 27.6959 124.541 28.7283V35.3312H121.716V26.6576C121.716 25.1832 121.654 23.863 121.604 22.5334H124.092L124.199 25.1927H124.277C124.576 24.3616 125.05 23.6059 125.707 23.098C126.343 22.6338 127.056 22.3811 127.797 22.3811C128.059 22.3811 128.363 22.3648 128.529 22.3996V25.1243ZM140.722 29.8464H132.141C132.175 31.0098 132.59 32.03 133.387 32.6993C134.109 33.301 135.044 33.5755 136.193 33.5755C137.466 33.5755 138.619 33.3599 139.662 32.9476L140.112 34.9299C138.899 35.4641 137.456 35.7193 135.793 35.7193C133.802 35.7193 132.235 35.1341 131.096 33.9605C129.959 32.7871 129.385 31.2101 129.385 29.2343C129.385 27.2885 129.917 25.6761 130.974 24.3816C132.091 23.0066 133.592 22.3193 135.477 22.3193C137.336 22.3193 138.738 23.0062 139.688 24.3812C140.445 25.4792 140.827 26.8855 140.827 28.4925C140.827 29.0004 140.79 29.514 140.722 29.8464Z" fill="#EE5646"/>
<path d="M41.8792 11.9015C42.1009 11.9407 42.4401 11.9407 42.7663 11.9407C44.8533 11.9537 46.0925 10.8055 46.0925 8.57489C46.1056 6.63096 44.9837 5.52221 42.9751 5.52221C42.4662 5.52221 42.1009 5.56126 41.8792 5.61345V11.9015ZM40.2749 4.45234C40.9792 4.335 41.8792 4.26985 42.8315 4.26985C44.475 4.26985 45.6099 4.60891 46.4186 5.28736C47.2664 5.97877 47.7883 7.02237 47.7883 8.5227C47.7883 10.0882 47.2535 11.2623 46.4186 12.0188C45.5446 12.8146 44.149 13.219 42.4401 13.219C41.501 13.219 40.7966 13.167 40.2749 13.1017V4.45234Z" fill="#EE5646"/>
<path d="M50.3714 9.95802C50.3714 11.1843 50.9715 12.1105 51.9498 12.1105C52.8628 12.1105 53.5019 11.2104 53.5019 9.93192C53.5019 8.94034 53.0584 7.8055 51.9627 7.8055C50.828 7.8055 50.3714 8.90129 50.3714 9.95802ZM55.1586 9.8927C55.1586 12.2279 53.5149 13.2715 51.8976 13.2715C50.0975 13.2715 48.7148 12.0323 48.7148 9.99708C48.7148 7.90987 50.0844 6.63125 52.0018 6.63125C53.8933 6.63125 55.1586 7.96206 55.1586 9.8927Z" fill="#EE5646"/>
<path d="M57.3374 6.77475L58.0026 9.65774C58.1462 10.3362 58.2896 11.0276 58.4069 11.719H58.433C58.5635 11.0276 58.7722 10.3232 58.9549 9.67087L59.7766 6.77475H61.081L61.8767 9.59259C62.0723 10.3362 62.242 11.0276 62.3854 11.719H62.4115C62.5158 11.0276 62.6592 10.3362 62.8289 9.59259L63.5332 6.77475H65.1116L63.1157 13.1279H61.6289L60.8723 10.5449C60.6767 9.87962 60.5331 9.27946 60.3897 8.50976H60.3636C60.2331 9.29259 60.0636 9.91885 59.881 10.5449L59.0722 13.1279H57.5722L55.6938 6.77475H57.3374Z" fill="#EE5646"/>
<path d="M66.143 8.66632C66.143 7.93585 66.13 7.32256 66.0908 6.77474H67.4995L67.5778 7.7271H67.6169C67.8909 7.23131 68.5822 6.63114 69.6388 6.63114C70.7474 6.63114 71.8952 7.34882 71.8952 9.35773V13.1279H70.2909V9.54039C70.2909 8.62726 69.9519 7.93585 69.0778 7.93585C68.4387 7.93585 67.9953 8.39242 67.8256 8.87507C67.7734 9.01868 67.7605 9.2143 67.7605 9.39696V13.1279H66.143V8.66632Z" fill="#EE5646"/>
<path d="M73.6045 3.86566H75.2219V13.1279H73.6045V3.86566Z" fill="#EE5646"/>
<path d="M78.2092 9.95802C78.2092 11.1843 78.8093 12.1105 79.7874 12.1105C80.7006 12.1105 81.3397 11.2104 81.3397 9.93192C81.3397 8.94034 80.8962 7.8055 79.8005 7.8055C78.6657 7.8055 78.2092 8.90129 78.2092 9.95802ZM82.9962 9.8927C82.9962 12.2279 81.3527 13.2715 79.7352 13.2715C77.9353 13.2715 76.5525 12.0323 76.5525 9.99708C76.5525 7.90987 77.9222 6.63125 79.8396 6.63125C81.7311 6.63125 82.9962 7.96206 82.9962 9.8927Z" fill="#EE5646"/>
<path d="M87.6798 10.0232C86.545 9.99708 85.4625 10.2449 85.4625 11.2104C85.4625 11.8366 85.8668 12.1235 86.3755 12.1235C87.0146 12.1235 87.4842 11.706 87.6277 11.2494C87.6667 11.1321 87.6798 11.0016 87.6798 10.8972V10.0232ZM87.8886 13.1281L87.7842 12.4237H87.7452C87.3538 12.9193 86.6886 13.2715 85.8668 13.2715C84.5883 13.2715 83.8711 12.3454 83.8711 11.3801C83.8711 9.77536 85.2928 8.9666 87.6408 8.97957V8.87519C87.6408 8.45785 87.4711 7.76627 86.3494 7.76627C85.7232 7.76627 85.0711 7.96206 84.6405 8.23597L84.3276 7.19236C84.7971 6.90533 85.6188 6.63125 86.6232 6.63125C88.6582 6.63125 89.2451 7.92284 89.2451 9.30566V11.6018C89.2451 12.1757 89.2712 12.7368 89.3364 13.1281H87.8886Z" fill="#EE5646"/>
<path d="M95.1935 9.42317C95.1935 9.2927 95.1804 9.13614 95.1543 9.00567C95.0109 8.37941 94.5022 7.87065 93.7717 7.87065C92.7411 7.87065 92.1673 8.78378 92.1673 9.97098C92.1673 11.1321 92.7411 11.9801 93.7587 11.9801C94.4108 11.9801 94.9848 11.5365 95.1413 10.8451C95.1804 10.7016 95.1935 10.5451 95.1935 10.3755V9.42317ZM96.7979 3.86578V11.3408C96.7979 11.9932 96.824 12.6976 96.85 13.1281H95.4152L95.3501 12.1235H95.3238C94.9457 12.828 94.176 13.2715 93.2498 13.2715C91.7369 13.2715 90.5367 11.9801 90.5367 10.0232C90.5238 7.89675 91.8542 6.63126 93.3805 6.63126C94.2542 6.63126 94.8804 6.99675 95.1674 7.46627H95.1935V3.86578H96.7979Z" fill="#EE5646"/>
<path d="M102.472 9.95802C102.472 11.1843 103.073 12.1105 104.051 12.1105C104.964 12.1105 105.603 11.2104 105.603 9.93192C105.603 8.94034 105.16 7.8055 104.064 7.8055C102.929 7.8055 102.472 8.90129 102.472 9.95802ZM107.26 9.8927C107.26 12.2279 105.616 13.2715 103.999 13.2715C102.199 13.2715 100.816 12.0323 100.816 9.99708C100.816 7.90987 102.186 6.63125 104.103 6.63125C105.994 6.63125 107.26 7.96206 107.26 9.8927Z" fill="#EE5646"/>
<path d="M108.578 8.66632C108.578 7.93585 108.565 7.32256 108.525 6.77474H109.934L110.012 7.7271H110.052C110.326 7.23131 111.017 6.63114 112.073 6.63114C113.182 6.63114 114.33 7.34882 114.33 9.35773V13.1279H112.726V9.54039C112.726 8.62726 112.386 7.93585 111.513 7.93585C110.873 7.93585 110.43 8.39242 110.26 8.87507C110.208 9.01868 110.195 9.2143 110.195 9.39696V13.1279H108.578V8.66632Z" fill="#EE5646"/>
<path d="M120.578 4.96144V6.7749H122.105V7.97506H120.578V10.7799C120.578 11.5496 120.787 11.954 121.4 11.954C121.674 11.954 121.883 11.9148 122.026 11.8757L122.052 13.102C121.818 13.1934 121.4 13.2585 120.891 13.2585C120.305 13.2585 119.809 13.0629 119.509 12.7368C119.17 12.3713 119.013 11.7974 119.013 10.9626V7.97506H118.1V6.7749H119.013V5.33988L120.578 4.96144Z" fill="#EE5646"/>
<path d="M123.318 3.86566H124.936V7.64881H124.962C125.158 7.34881 125.418 7.10084 125.758 6.91818C126.071 6.73552 126.449 6.63114 126.853 6.63114C127.936 6.63114 129.071 7.34882 129.071 9.38383V13.1279H127.466V9.56649C127.466 8.64023 127.127 7.94882 126.24 7.94882C125.614 7.94882 125.171 8.36632 125.001 8.84898C124.949 8.97945 124.936 9.14898 124.936 9.33164V13.1279H123.318V3.86566Z" fill="#EE5646"/>
<path d="M134.706 9.2796C134.719 8.69256 134.458 7.72724 133.389 7.72724C132.397 7.72724 131.98 8.62741 131.915 9.2796H134.706ZM131.915 10.4015C131.954 11.5496 132.854 12.0454 133.871 12.0454C134.615 12.0454 135.15 11.941 135.632 11.7582L135.867 12.8671C135.319 13.089 134.563 13.2585 133.65 13.2585C131.589 13.2585 130.375 11.9932 130.375 10.0493C130.375 8.28819 131.445 6.63129 133.48 6.63129C135.541 6.63129 136.219 8.32724 136.219 9.7232C136.219 10.0232 136.193 10.258 136.167 10.4015H131.915Z" fill="#EE5646"/>
</svg>
