<svg width="141" height="41" viewBox="0 0 141 41" fill="none" xmlns="http://www.w3.org/2000/svg">
<path fill-rule="evenodd" clip-rule="evenodd" d="M31.0838 26.5415C30.2341 28.4248 29.8275 29.2653 28.734 30.9297C27.2074 33.254 25.0565 36.1477 22.3914 36.1719C20.0226 36.1939 19.4146 34.63 16.2004 34.6478C12.9863 34.6654 12.3149 36.1994 9.94594 36.1778C7.28053 36.1532 5.24229 33.5398 3.71589 31.2165C-0.552111 24.7188 -0.998015 17.0931 1.6338 13.0392C3.50467 10.1582 6.45493 8.47172 9.23003 8.47172C12.055 8.47172 13.831 10.0212 16.1667 10.0212C18.4323 10.0212 19.8136 8.46923 23.0793 8.46923C25.5481 8.46923 28.164 9.81333 30.028 12.1389C23.9211 15.4856 24.9129 24.2095 31.0838 26.5415" fill="white"/>
<path fill-rule="evenodd" clip-rule="evenodd" d="M20.6018 5.87348C21.7877 4.35037 22.6895 2.19835 22.3625 -4.18028e-05C20.4246 0.133421 18.1565 1.36683 16.8324 2.97486C15.6307 4.43497 14.6389 6.60012 15.0252 8.70411C17.1412 8.76959 19.3305 7.50561 20.6018 5.87348Z" fill="white"/>
<path fill-rule="evenodd" clip-rule="evenodd" d="M61.2452 24.3668C60.5406 24.3668 59.9038 24.599 59.3281 25.0665C58.7529 25.5404 58.3775 26.1538 58.1999 26.9134C58.113 27.2694 58.0674 27.5579 58.0674 27.7891V29.931C58.0674 30.8686 58.3511 31.6612 58.9284 32.3056C59.5011 32.9439 60.2493 33.2682 61.1656 33.2682C62.24 33.2682 63.085 32.8559 63.6841 32.024C64.2842 31.1936 64.5818 30.0995 64.5818 28.7363C64.5818 27.4859 64.3031 26.452 63.7375 25.6421C63.1166 24.7984 62.2882 24.3668 61.2452 24.3668V24.3668ZM113.576 24.1888C112.432 24.1888 111.557 24.6967 110.96 25.7195C110.443 26.5612 110.189 27.5888 110.189 28.804C110.189 29.9885 110.443 30.9982 110.96 31.8418C111.572 32.8627 112.438 33.3708 113.555 33.3708C114.642 33.3708 115.503 32.8559 116.117 31.8101C116.65 30.956 116.916 29.931 116.916 28.7548C116.916 27.577 116.661 26.5612 116.152 25.7195C115.543 24.6967 114.69 24.1888 113.576 24.1888V24.1888ZM75.3881 24.3668C74.6796 24.3668 74.0466 24.599 73.4703 25.0665C72.8967 25.5404 72.5099 26.1538 72.3323 26.9134C72.2442 27.2694 72.193 27.5579 72.193 27.7891V29.931C72.193 30.8686 72.4854 31.6612 73.0617 32.3056C73.6342 32.9439 74.3863 33.2682 75.3 33.2682C76.3827 33.2682 77.2222 32.8559 77.8232 32.024C78.4248 31.1936 78.7275 30.0995 78.7275 28.7363C78.7275 27.4859 78.4435 26.452 77.8805 25.6421C77.2581 24.7984 76.4281 24.3668 75.3881 24.3668V24.3668ZM45.8365 19.787H45.7865C45.6067 20.618 45.3281 21.7241 44.9363 23.2092L43.4529 27.931H48.2443L46.7414 23.2092C46.5788 22.7303 46.2756 21.4491 45.8365 19.787ZM135.266 24.0485C134.333 24.0485 133.574 24.5268 132.989 25.299C132.513 25.9155 132.227 26.6014 132.141 27.5986H138.099C138.114 26.6014 137.933 25.9446 137.545 25.3233C137.049 24.5318 136.288 24.0485 135.266 24.0485V24.0485ZM50.4185 35.0779L48.7519 29.9255H42.9511L41.3602 35.0779H38.3975L44.1384 17.2939H47.6906L53.4662 35.0779H50.4185ZM65.712 33.8283C64.649 34.9535 63.3217 35.519 61.7439 35.519C60.0357 35.519 58.8984 34.9111 58.0674 33.6882V40.5626H55.2423V26.5855C55.2423 25.2096 55.1768 23.9421 55.1044 22.2801H57.6201L57.7779 24.4407H57.828C58.7863 22.9449 60.2313 22.1199 62.176 22.1199C63.6941 22.1199 64.9574 22.7036 65.9784 23.9071C66.9902 25.1047 67.4995 26.683 67.4995 28.6414C67.4995 30.8366 66.9051 32.5544 65.712 33.8283V33.8283ZM79.8511 33.8283C78.7854 34.9535 77.4559 35.519 75.874 35.519C74.1708 35.519 73.024 34.9111 72.193 33.6882V40.5626H69.3679V26.5855C69.3679 25.2096 69.3154 23.9421 69.2466 22.2801H71.7553L71.9208 24.4407H71.97C72.9299 22.9449 74.3724 22.1199 76.3141 22.1199C77.8331 22.1199 79.0998 22.7036 80.1147 23.9071C81.1322 25.1047 81.6387 26.683 81.6387 28.6414C81.6387 30.8366 81.0441 32.5544 79.8511 33.8283V33.8283ZM96.3746 33.9281C95.207 34.9713 93.5882 35.4899 91.5115 35.4899C89.587 35.4899 88.0481 35.1173 86.8861 34.3791L87.5504 31.9961C88.8027 32.7342 90.1787 33.1088 91.6759 33.1088C92.7576 33.1088 93.5938 32.8627 94.1947 32.3809C94.7917 31.897 95.0921 31.2488 95.0921 30.4264C95.0921 29.7124 94.8447 29.1028 94.3534 28.6055C93.8546 28.1122 93.0403 27.6565 91.8914 27.2287C88.7698 26.0667 87.2062 24.363 87.2062 22.121C87.2062 20.6561 87.7515 19.4516 88.8569 18.5169C89.9604 17.5835 91.421 17.1139 93.2412 17.1139C94.8643 17.1139 96.216 17.3986 97.2947 17.9597L96.573 20.2914C95.5669 19.7456 94.4234 19.4689 93.1479 19.4689C92.1397 19.4689 91.3492 19.7255 90.7803 20.2083C90.305 20.6561 90.0661 21.1943 90.0661 21.8277C90.0661 22.5292 90.3401 23.1146 90.8862 23.5803C91.3643 24.0021 92.2296 24.4585 93.4785 24.9523C95.0197 25.5656 96.1454 26.2939 96.872 27.1263C97.5935 27.9555 97.9573 28.9868 97.9573 30.2205C97.9573 31.7406 97.4262 32.9799 96.3746 33.9281V33.9281ZM106.427 24.6069H103.436V30.7557C103.436 32.3435 103.928 33.1306 105.041 33.1306C105.552 33.1306 105.939 33.0934 106.277 33.0059L106.341 35.1724C105.776 35.3844 105.027 35.4917 104.109 35.4917C102.985 35.4917 102.066 35.152 101.432 34.4584C100.791 33.7731 100.444 32.6152 100.444 30.9907V24.6069H98.6162V22.2801H100.444V20.0002L103.436 19.1526V22.2801H106.427V24.6069ZM118.189 33.5634C117.003 34.8666 115.432 35.519 113.477 35.519C111.585 35.519 110.075 34.8927 108.955 33.6387C107.836 32.3887 107.278 30.8021 107.278 28.8977C107.278 26.9047 107.854 25.2693 109.01 24.0001C110.168 22.7238 111.722 22.0968 113.681 22.0968C115.577 22.0968 117.094 22.717 118.241 23.9767C119.333 25.188 119.88 26.7645 119.88 28.6868C119.88 30.6703 119.319 32.2883 118.189 33.5634V33.5634ZM128.529 24.871C128.363 24.8195 127.922 24.7984 127.607 24.7984C126.601 24.7984 125.815 25.1775 125.266 25.9353C124.788 26.6076 124.541 27.4426 124.541 28.475V35.0779H121.716V26.4043C121.716 24.9299 121.654 23.6097 121.604 22.2801H124.092L124.199 24.9394H124.277C124.576 24.1083 125.05 23.3526 125.707 22.8447C126.343 22.3805 127.056 22.1278 127.797 22.1278C128.059 22.1278 128.363 22.1115 128.529 22.1463V24.871ZM140.722 29.5931H132.141C132.175 30.7565 132.59 31.7767 133.387 32.446C134.109 33.0477 135.044 33.3223 136.193 33.3223C137.466 33.3223 138.619 33.1066 139.662 32.6943L140.112 34.6766C138.899 35.2108 137.456 35.466 135.793 35.466C133.802 35.466 132.235 34.8808 131.096 33.7072C129.959 32.5338 129.385 30.9568 129.385 28.981C129.385 27.0352 129.917 25.4228 130.974 24.1283C132.091 22.7533 133.592 22.066 135.477 22.066C137.336 22.066 138.738 22.7529 139.688 24.1279C140.445 25.2259 140.827 26.6322 140.827 28.2392C140.827 28.7471 140.79 29.2607 140.722 29.5931" fill="white"/>
<path d="M41.8792 11.6483C42.1009 11.6875 42.4401 11.6875 42.7663 11.6875C44.8533 11.7005 46.0925 10.5524 46.0925 8.32172C46.1056 6.37778 44.9837 5.26903 42.9751 5.26903C42.4662 5.26903 42.1009 5.30809 41.8792 5.36028V11.6483ZM40.2749 4.19917C40.9792 4.08183 41.8792 4.01668 42.8315 4.01668C44.475 4.01668 45.6099 4.35574 46.4186 5.03419C47.2664 5.7256 47.7883 6.7692 47.7883 8.26953C47.7883 9.83502 47.2535 11.0091 46.4186 11.7657C45.5446 12.5614 44.149 12.9658 42.4401 12.9658C41.501 12.9658 40.7966 12.9138 40.2749 12.8485V4.19917" fill="white"/>
<path d="M50.3714 9.70485C50.3714 10.9311 50.9715 11.8574 51.9498 11.8574C52.8628 11.8574 53.5019 10.9572 53.5019 9.67875C53.5019 8.68717 53.0584 7.55232 51.9627 7.55232C50.828 7.55232 50.3714 8.64811 50.3714 9.70485ZM55.1586 9.63952C55.1586 11.9747 53.5149 13.0183 51.8976 13.0183C50.0975 13.0183 48.7148 11.7791 48.7148 9.7439C48.7148 7.6567 50.0844 6.37808 52.0018 6.37808C53.8933 6.37808 55.1586 7.70889 55.1586 9.63952Z" fill="white"/>
<path d="M57.3374 6.52146L58.0026 9.40444C58.1462 10.0829 58.2896 10.7743 58.4069 11.4657H58.433C58.5635 10.7743 58.7722 10.0699 58.9549 9.41758L59.7766 6.52146H61.081L61.8767 9.33929C62.0723 10.0829 62.242 10.7743 62.3854 11.4657H62.4115C62.5158 10.7743 62.6592 10.0829 62.8289 9.33929L63.5332 6.52146H65.1116L63.1157 12.8746H61.6289L60.8723 10.2916C60.6767 9.62633 60.5331 9.02616 60.3897 8.25647H60.3636C60.2331 9.03929 60.0636 9.66555 59.881 10.2916L59.0722 12.8746H57.5722L55.6938 6.52146H57.3374" fill="white"/>
<path d="M66.143 8.41302C66.143 7.68255 66.13 7.06926 66.0908 6.52145H67.4996L67.5778 7.4738H67.6169C67.8909 6.97801 68.5822 6.37785 69.6388 6.37785C70.7474 6.37785 71.8952 7.09552 71.8952 9.10444V12.8746H70.2909V9.2871C70.2909 8.37397 69.9519 7.68255 69.0778 7.68255C68.4387 7.68255 67.9953 8.13912 67.8256 8.62178C67.7734 8.76538 67.7605 8.96101 67.7605 9.14367V12.8746H66.143V8.41302Z" fill="white"/>
<path d="M73.6045 3.61236H75.2219V12.8746H73.6045V3.61236" fill="white"/>
<path d="M78.2092 9.70485C78.2092 10.9311 78.8093 11.8574 79.7874 11.8574C80.7006 11.8574 81.3397 10.9572 81.3397 9.67875C81.3397 8.68717 80.8962 7.55232 79.8005 7.55232C78.6657 7.55232 78.2092 8.64811 78.2092 9.70485ZM82.9962 9.63952C82.9962 11.9747 81.3527 13.0183 79.7352 13.0183C77.9353 13.0183 76.5525 11.7791 76.5525 9.7439C76.5525 7.6567 77.9222 6.37808 79.8396 6.37808C81.7311 6.37808 82.9962 7.70889 82.9962 9.63952Z" fill="white"/>
<path d="M87.6798 9.77C86.545 9.7439 85.4625 9.99171 85.4625 10.9572C85.4625 11.5835 85.8668 11.8703 86.3755 11.8703C87.0146 11.8703 87.4842 11.4528 87.6277 10.9963C87.6667 10.8789 87.6798 10.7484 87.6798 10.6441V9.77ZM87.8886 12.8749L87.7842 12.1705H87.7452C87.3538 12.6661 86.6886 13.0183 85.8668 13.0183C84.5883 13.0183 83.8711 12.0922 83.8711 11.1269C83.8711 9.52218 85.2928 8.71343 87.6408 8.72639V8.62202C87.6408 8.20468 87.4711 7.5131 86.3494 7.5131C85.7232 7.5131 85.0711 7.70889 84.6405 7.98279L84.3276 6.93919C84.7971 6.65215 85.6188 6.37808 86.6232 6.37808C88.6582 6.37808 89.2451 7.66966 89.2451 9.05249V11.3486C89.2451 11.9225 89.2712 12.4836 89.3364 12.8749H87.8886" fill="white"/>
<path d="M95.1935 9.17C95.1935 9.03953 95.1804 8.88296 95.1543 8.75249C95.0109 8.12623 94.5022 7.61748 93.7717 7.61748C92.7411 7.61748 92.1673 8.53061 92.1673 9.71781C92.1673 10.8789 92.7411 11.7269 93.7587 11.7269C94.4108 11.7269 94.9848 11.2833 95.1413 10.5919C95.1804 10.4484 95.1935 10.2919 95.1935 10.1224V9.17ZM96.7979 3.6126V11.0877C96.7979 11.74 96.824 12.4444 96.85 12.8749H95.4152L95.3501 11.8703H95.3238C94.9457 12.5749 94.176 13.0183 93.2498 13.0183C91.7369 13.0183 90.5367 11.7269 90.5367 9.77C90.5238 7.64357 91.8542 6.37809 93.3805 6.37809C94.2542 6.37809 94.8804 6.74357 95.1674 7.2131H95.1935V3.6126H96.7979" fill="white"/>
<path d="M102.472 9.70485C102.472 10.9311 103.073 11.8574 104.051 11.8574C104.964 11.8574 105.603 10.9572 105.603 9.67875C105.603 8.68717 105.16 7.55232 104.064 7.55232C102.929 7.55232 102.472 8.64811 102.472 9.70485V9.70485ZM107.26 9.63952C107.26 11.9747 105.616 13.0183 103.999 13.0183C102.199 13.0183 100.816 11.7791 100.816 9.7439C100.816 7.6567 102.186 6.37808 104.103 6.37808C105.994 6.37808 107.26 7.70889 107.26 9.63952Z" fill="white"/>
<path d="M108.578 8.41302C108.578 7.68255 108.565 7.06926 108.525 6.52145H109.934L110.012 7.4738H110.052C110.326 6.97801 111.017 6.37785 112.073 6.37785C113.182 6.37785 114.33 7.09552 114.33 9.10444V12.8746H112.726V9.2871C112.726 8.37397 112.386 7.68255 111.513 7.68255C110.873 7.68255 110.43 8.13912 110.26 8.62178C110.208 8.76538 110.195 8.96101 110.195 9.14367V12.8746H108.578V8.41302Z" fill="white"/>
<path d="M120.578 4.70814V6.5216H122.105V7.72177H120.578V10.5266C120.578 11.2963 120.787 11.7007 121.4 11.7007C121.674 11.7007 121.883 11.6615 122.026 11.6224L122.052 12.8487C121.818 12.9401 121.4 13.0052 120.891 13.0052C120.305 13.0052 119.809 12.8096 119.509 12.4835C119.17 12.118 119.013 11.5441 119.013 10.7093V7.72177H118.1V6.5216H119.013V5.08659L120.578 4.70814" fill="white"/>
<path d="M123.318 3.61236H124.936V7.39552H124.962C125.158 7.09552 125.418 6.84754 125.758 6.66488C126.071 6.48222 126.449 6.37785 126.853 6.37785C127.936 6.37785 129.071 7.09552 129.071 9.13053V12.8746H127.466V9.31319C127.466 8.38693 127.127 7.69552 126.24 7.69552C125.614 7.69552 125.171 8.11303 125.001 8.59568C124.949 8.72616 124.936 8.89568 124.936 9.07834V12.8746H123.318V3.61236" fill="white"/>
<path d="M134.706 9.0263C134.719 8.43927 134.458 7.47395 133.389 7.47395C132.397 7.47395 131.98 8.37411 131.915 9.0263H134.706ZM131.915 10.1482C131.954 11.2963 132.854 11.7921 133.871 11.7921C134.615 11.7921 135.15 11.6877 135.632 11.5049L135.867 12.6138C135.319 12.8357 134.563 13.0052 133.65 13.0052C131.589 13.0052 130.375 11.7399 130.375 9.796C130.375 8.03489 131.445 6.37799 133.48 6.37799C135.541 6.37799 136.219 8.07395 136.219 9.4699C136.219 9.7699 136.193 10.0048 136.167 10.1482H131.915" fill="white"/>
</svg>
