<svg width="188" height="58" viewBox="0 0 188 58" fill="none" xmlns="http://www.w3.org/2000/svg">
<rect width="188" height="58" rx="29" fill="#EE5646"/>
<path fill-rule="evenodd" clip-rule="evenodd" d="M55.0838 35.5415C54.2341 37.4248 53.8275 38.2653 52.734 39.9297C51.2074 42.254 49.0565 45.1477 46.3914 45.1719C44.0226 45.1939 43.4146 43.63 40.2004 43.6478C36.9863 43.6654 36.3149 45.1994 33.9459 45.1778C31.2805 45.1532 29.2423 42.5398 27.7159 40.2165C23.4479 33.7188 23.002 26.0931 25.6338 22.0392C27.5047 19.1582 30.4549 17.4717 33.23 17.4717C36.055 17.4717 37.831 19.0212 40.1667 19.0212C42.4323 19.0212 43.8136 17.4692 47.0793 17.4692C49.5481 17.4692 52.164 18.8133 54.028 21.1389C47.9211 24.4856 48.9129 33.2095 55.0838 35.5415Z" fill="white"/>
<path fill-rule="evenodd" clip-rule="evenodd" d="M44.6018 14.8735C45.7877 13.3504 46.6895 11.1984 46.3625 8.99996C44.4246 9.13342 42.1565 10.3668 40.8324 11.9749C39.6307 13.435 38.6389 15.6001 39.0252 17.7041C41.1412 17.7696 43.3305 16.5056 44.6018 14.8735Z" fill="white"/>
<path fill-rule="evenodd" clip-rule="evenodd" d="M85.2452 33.3668C84.5406 33.3668 83.9038 33.599 83.3281 34.0665C82.7529 34.5404 82.3775 35.1538 82.1999 35.9134C82.113 36.2694 82.0674 36.5579 82.0674 36.7891V38.931C82.0674 39.8686 82.3511 40.6612 82.9284 41.3056C83.5011 41.9439 84.2493 42.2682 85.1656 42.2682C86.24 42.2682 87.085 41.8559 87.6841 41.024C88.2842 40.1936 88.5818 39.0995 88.5818 37.7363C88.5818 36.4859 88.3031 35.452 87.7375 34.6421C87.1166 33.7984 86.2882 33.3668 85.2452 33.3668ZM137.576 33.1888C136.432 33.1888 135.557 33.6967 134.96 34.7195C134.443 35.5612 134.189 36.5888 134.189 37.804C134.189 38.9885 134.443 39.9982 134.96 40.8418C135.572 41.8627 136.438 42.3708 137.555 42.3708C138.642 42.3708 139.503 41.8559 140.117 40.8101C140.65 39.956 140.916 38.931 140.916 37.7548C140.916 36.577 140.661 35.5612 140.152 34.7195C139.543 33.6967 138.69 33.1888 137.576 33.1888ZM99.3881 33.3668C98.6796 33.3668 98.0466 33.599 97.4703 34.0665C96.8967 34.5404 96.5099 35.1538 96.3323 35.9134C96.2442 36.2694 96.193 36.5579 96.193 36.7891V38.931C96.193 39.8686 96.4854 40.6612 97.0617 41.3056C97.6342 41.9439 98.3863 42.2682 99.3 42.2682C100.383 42.2682 101.222 41.8559 101.823 41.024C102.425 40.1936 102.728 39.0995 102.728 37.7363C102.728 36.4859 102.444 35.452 101.881 34.6421C101.258 33.7984 100.428 33.3668 99.3881 33.3668ZM69.8365 28.787H69.7865C69.6067 29.618 69.3281 30.7241 68.9363 32.2092L67.4529 36.931H72.2443L70.7414 32.2092C70.5788 31.7303 70.2756 30.4491 69.8365 28.787ZM159.266 33.0485C158.333 33.0485 157.574 33.5268 156.989 34.299C156.513 34.9155 156.227 35.6014 156.141 36.5986H162.099C162.114 35.6014 161.933 34.9446 161.545 34.3233C161.049 33.5318 160.288 33.0485 159.266 33.0485ZM74.4185 44.0779L72.7519 38.9255H66.9511L65.3602 44.0779H62.3975L68.1384 26.2939H71.6906L77.4662 44.0779H74.4185ZM89.712 42.8283C88.649 43.9535 87.3217 44.519 85.7439 44.519C84.0357 44.519 82.8984 43.9111 82.0674 42.6882V49.5626H79.2423V35.5855C79.2423 34.2096 79.1768 32.9421 79.1044 31.2801H81.6201L81.7779 33.4407H81.828C82.7863 31.9449 84.2313 31.1199 86.176 31.1199C87.6941 31.1199 88.9574 31.7036 89.9784 32.9071C90.9902 34.1047 91.4995 35.683 91.4995 37.6414C91.4995 39.8366 90.9051 41.5544 89.712 42.8283ZM103.851 42.8283C102.785 43.9535 101.456 44.519 99.874 44.519C98.1708 44.519 97.024 43.9111 96.193 42.6882V49.5626H93.3679V35.5855C93.3679 34.2096 93.3154 32.9421 93.2466 31.2801H95.7553L95.9208 33.4407H95.97C96.9299 31.9449 98.3724 31.1199 100.314 31.1199C101.833 31.1199 103.1 31.7036 104.115 32.9071C105.132 34.1047 105.639 35.683 105.639 37.6414C105.639 39.8366 105.044 41.5544 103.851 42.8283ZM120.375 42.9281C119.207 43.9713 117.588 44.4899 115.512 44.4899C113.587 44.4899 112.048 44.1173 110.886 43.3791L111.55 40.9961C112.803 41.7342 114.179 42.1088 115.676 42.1088C116.758 42.1088 117.594 41.8627 118.195 41.3809C118.792 40.897 119.092 40.2488 119.092 39.4264C119.092 38.7124 118.845 38.1028 118.353 37.6055C117.855 37.1122 117.04 36.6565 115.891 36.2287C112.77 35.0667 111.206 33.363 111.206 31.121C111.206 29.6561 111.751 28.4516 112.857 27.5169C113.96 26.5835 115.421 26.1139 117.241 26.1139C118.864 26.1139 120.216 26.3986 121.295 26.9597L120.573 29.2914C119.567 28.7456 118.423 28.4689 117.148 28.4689C116.14 28.4689 115.349 28.7255 114.78 29.2083C114.305 29.6561 114.066 30.1943 114.066 30.8277C114.066 31.5292 114.34 32.1146 114.886 32.5803C115.364 33.0021 116.23 33.4585 117.478 33.9523C119.02 34.5656 120.145 35.2939 120.872 36.1263C121.594 36.9555 121.957 37.9868 121.957 39.2205C121.957 40.7406 121.426 41.9799 120.375 42.9281ZM130.427 33.6069H127.436V39.7557C127.436 41.3435 127.928 42.1306 129.041 42.1306C129.552 42.1306 129.939 42.0934 130.277 42.0059L130.341 44.1724C129.776 44.3844 129.027 44.4917 128.109 44.4917C126.985 44.4917 126.066 44.152 125.432 43.4584C124.791 42.7731 124.444 41.6152 124.444 39.9907V33.6069H122.616V31.2801H124.444V29.0002L127.436 28.1526V31.2801H130.427V33.6069ZM142.189 42.5634C141.003 43.8666 139.432 44.519 137.477 44.519C135.585 44.519 134.075 43.8927 132.955 42.6387C131.836 41.3887 131.278 39.8021 131.278 37.8977C131.278 35.9047 131.854 34.2693 133.01 33.0001C134.168 31.7238 135.722 31.0968 137.681 31.0968C139.577 31.0968 141.094 31.717 142.241 32.9767C143.333 34.188 143.88 35.7645 143.88 37.6868C143.88 39.6703 143.319 41.2883 142.189 42.5634ZM152.529 33.871C152.363 33.8195 151.922 33.7984 151.607 33.7984C150.601 33.7984 149.815 34.1775 149.266 34.9353C148.788 35.6076 148.541 36.4426 148.541 37.475V44.0779H145.716V35.4043C145.716 33.9299 145.654 32.6097 145.604 31.2801H148.092L148.199 33.9394H148.277C148.576 33.1083 149.05 32.3526 149.707 31.8447C150.343 31.3805 151.056 31.1278 151.797 31.1278C152.059 31.1278 152.363 31.1115 152.529 31.1463V33.871ZM164.722 38.5931H156.141C156.175 39.7565 156.59 40.7767 157.387 41.446C158.109 42.0477 159.044 42.3223 160.193 42.3223C161.466 42.3223 162.619 42.1066 163.662 41.6943L164.112 43.6766C162.899 44.2108 161.456 44.466 159.793 44.466C157.802 44.466 156.235 43.8808 155.096 42.7072C153.959 41.5338 153.385 39.9568 153.385 37.981C153.385 36.0352 153.917 34.4228 154.974 33.1283C156.091 31.7533 157.592 31.066 159.477 31.066C161.336 31.066 162.738 31.7529 163.688 33.1279C164.445 34.2259 164.827 35.6322 164.827 37.2392C164.827 37.7471 164.79 38.2607 164.722 38.5931Z" fill="white"/>
<path d="M65.8792 20.6483C66.1009 20.6875 66.4401 20.6875 66.7663 20.6875C68.8533 20.7005 70.0925 19.5524 70.0925 17.3217C70.1056 15.3778 68.9837 14.269 66.9751 14.269C66.4662 14.269 66.1009 14.3081 65.8792 14.3603V20.6483ZM64.2749 13.1992C64.9792 13.0818 65.8792 13.0167 66.8315 13.0167C68.475 13.0167 69.6099 13.3557 70.4186 14.0342C71.2664 14.7256 71.7883 15.7692 71.7883 17.2695C71.7883 18.835 71.2535 20.0091 70.4186 20.7657C69.5446 21.5614 68.149 21.9658 66.4401 21.9658C65.501 21.9658 64.7966 21.9138 64.2749 21.8485V13.1992Z" fill="white"/>
<path d="M74.3714 18.7048C74.3714 19.9311 74.9715 20.8574 75.9498 20.8574C76.8628 20.8574 77.5019 19.9572 77.5019 18.6788C77.5019 17.6872 77.0584 16.5523 75.9627 16.5523C74.828 16.5523 74.3714 17.6481 74.3714 18.7048ZM79.1586 18.6395C79.1586 20.9747 77.5149 22.0183 75.8976 22.0183C74.0975 22.0183 72.7148 20.7791 72.7148 18.7439C72.7148 16.6567 74.0844 15.3781 76.0018 15.3781C77.8933 15.3781 79.1586 16.7089 79.1586 18.6395Z" fill="white"/>
<path d="M81.3374 15.5215L82.0026 18.4044C82.1462 19.0829 82.2896 19.7743 82.4069 20.4657H82.433C82.5635 19.7743 82.7722 19.0699 82.9549 18.4176L83.7766 15.5215H85.081L85.8767 18.3393C86.0723 19.0829 86.242 19.7743 86.3854 20.4657H86.4115C86.5158 19.7743 86.6592 19.0829 86.8289 18.3393L87.5332 15.5215H89.1116L87.1157 21.8746H85.6289L84.8723 19.2916C84.6767 18.6263 84.5331 18.0262 84.3897 17.2565H84.3636C84.2331 18.0393 84.0636 18.6656 83.881 19.2916L83.0722 21.8746H81.5722L79.6938 15.5215H81.3374Z" fill="white"/>
<path d="M90.143 17.413C90.143 16.6826 90.13 16.0693 90.0908 15.5214H91.4995L91.5778 16.4738H91.6169C91.8909 15.978 92.5822 15.3778 93.6388 15.3778C94.7474 15.3778 95.8952 16.0955 95.8952 18.1044V21.8746H94.2909V18.2871C94.2909 17.374 93.9519 16.6826 93.0778 16.6826C92.4387 16.6826 91.9953 17.1391 91.8256 17.6218C91.7734 17.7654 91.7605 17.961 91.7605 18.1437V21.8746H90.143V17.413Z" fill="white"/>
<path d="M97.6045 12.6124H99.2219V21.8746H97.6045V12.6124Z" fill="white"/>
<path d="M102.209 18.7048C102.209 19.9311 102.809 20.8574 103.787 20.8574C104.701 20.8574 105.34 19.9572 105.34 18.6788C105.34 17.6872 104.896 16.5523 103.801 16.5523C102.666 16.5523 102.209 17.6481 102.209 18.7048ZM106.996 18.6395C106.996 20.9747 105.353 22.0183 103.735 22.0183C101.935 22.0183 100.552 20.7791 100.552 18.7439C100.552 16.6567 101.922 15.3781 103.84 15.3781C105.731 15.3781 106.996 16.7089 106.996 18.6395Z" fill="white"/>
<path d="M111.68 18.77C110.545 18.7439 109.462 18.9917 109.462 19.9572C109.462 20.5835 109.867 20.8703 110.375 20.8703C111.015 20.8703 111.484 20.4528 111.628 19.9963C111.667 19.8789 111.68 19.7484 111.68 19.6441V18.77ZM111.889 21.8749L111.784 21.1705H111.745C111.354 21.6661 110.689 22.0183 109.867 22.0183C108.588 22.0183 107.871 21.0922 107.871 20.1269C107.871 18.5222 109.293 17.7134 111.641 17.7264V17.622C111.641 17.2047 111.471 16.5131 110.349 16.5131C109.723 16.5131 109.071 16.7089 108.641 16.9828L108.328 15.9392C108.797 15.6522 109.619 15.3781 110.623 15.3781C112.658 15.3781 113.245 16.6697 113.245 18.0525V20.3486C113.245 20.9225 113.271 21.4836 113.336 21.8749H111.889Z" fill="white"/>
<path d="M119.194 18.17C119.194 18.0395 119.18 17.883 119.154 17.7525C119.011 17.1262 118.502 16.6175 117.772 16.6175C116.741 16.6175 116.167 17.5306 116.167 18.7178C116.167 19.8789 116.741 20.7269 117.759 20.7269C118.411 20.7269 118.985 20.2833 119.141 19.5919C119.18 19.4484 119.194 19.2919 119.194 19.1224V18.17ZM120.798 12.6126V20.0877C120.798 20.74 120.824 21.4444 120.85 21.8749H119.415L119.35 20.8703H119.324C118.946 21.5749 118.176 22.0183 117.25 22.0183C115.737 22.0183 114.537 20.7269 114.537 18.77C114.524 16.6436 115.854 15.3781 117.38 15.3781C118.254 15.3781 118.88 15.7436 119.167 16.2131H119.194V12.6126H120.798Z" fill="white"/>
<path d="M126.472 18.7048C126.472 19.9311 127.073 20.8574 128.051 20.8574C128.964 20.8574 129.603 19.9572 129.603 18.6788C129.603 17.6872 129.16 16.5523 128.064 16.5523C126.929 16.5523 126.472 17.6481 126.472 18.7048ZM131.26 18.6395C131.26 20.9747 129.616 22.0183 127.999 22.0183C126.199 22.0183 124.816 20.7791 124.816 18.7439C124.816 16.6567 126.186 15.3781 128.103 15.3781C129.994 15.3781 131.26 16.7089 131.26 18.6395Z" fill="white"/>
<path d="M132.578 17.413C132.578 16.6826 132.565 16.0693 132.525 15.5214H133.934L134.012 16.4738H134.052C134.326 15.978 135.017 15.3778 136.073 15.3778C137.182 15.3778 138.33 16.0955 138.33 18.1044V21.8746H136.726V18.2871C136.726 17.374 136.386 16.6826 135.513 16.6826C134.873 16.6826 134.43 17.1391 134.26 17.6218C134.208 17.7654 134.195 17.961 134.195 18.1437V21.8746H132.578V17.413Z" fill="white"/>
<path d="M144.578 13.7081V15.5216H146.105V16.7218H144.578V19.5266C144.578 20.2963 144.787 20.7007 145.4 20.7007C145.674 20.7007 145.883 20.6615 146.026 20.6224L146.052 21.8487C145.818 21.9401 145.4 22.0052 144.891 22.0052C144.305 22.0052 143.809 21.8096 143.509 21.4835C143.17 21.118 143.013 20.5441 143.013 19.7093V16.7218H142.1V15.5216H143.013V14.0866L144.578 13.7081Z" fill="white"/>
<path d="M147.318 12.6124H148.936V16.3955H148.962C149.158 16.0955 149.418 15.8475 149.758 15.6649C150.071 15.4822 150.449 15.3778 150.853 15.3778C151.936 15.3778 153.071 16.0955 153.071 18.1305V21.8746H151.466V18.3132C151.466 17.3869 151.127 16.6955 150.24 16.6955C149.614 16.6955 149.171 17.113 149.001 17.5957C148.949 17.7262 148.936 17.8957 148.936 18.0783V21.8746H147.318V12.6124Z" fill="white"/>
<path d="M158.706 18.0263C158.719 17.4393 158.458 16.4739 157.389 16.4739C156.397 16.4739 155.98 17.3741 155.915 18.0263H158.706ZM155.915 19.1482C155.954 20.2963 156.854 20.7921 157.871 20.7921C158.615 20.7921 159.15 20.6877 159.632 20.5049L159.867 21.6138C159.319 21.8357 158.563 22.0052 157.65 22.0052C155.589 22.0052 154.375 20.7399 154.375 18.796C154.375 17.0349 155.445 15.378 157.48 15.378C159.541 15.378 160.219 17.0739 160.219 18.4699C160.219 18.7699 160.193 19.0048 160.167 19.1482H155.915Z" fill="white"/>
</svg>
