<svg width="24" height="22" viewBox="0 0 24 22" fill="none" xmlns="http://www.w3.org/2000/svg">
<path d="M22.1053 17.6842C22.5919 17.6845 23.0597 17.8719 23.4119 18.2077C23.764 18.5435 23.9735 19.0019 23.9969 19.4879C24.0203 19.9739 23.8558 20.4503 23.5375 20.8184C23.2192 21.1864 22.7715 21.4179 22.2872 21.4648L22.1053 21.4737H1.89474C1.40815 21.4734 0.940301 21.286 0.588143 20.9502C0.235985 20.6144 0.0265111 20.156 0.00312725 19.67C-0.0202566 19.184 0.144242 18.7076 0.462537 18.3395C0.780832 17.9715 1.22852 17.74 1.71284 17.6931L1.89474 17.6842H22.1053ZM22.1053 8.8421C22.6078 8.8421 23.0897 9.04173 23.445 9.39706C23.8004 9.75239 24 10.2343 24 10.7368C24 11.2394 23.8004 11.7213 23.445 12.0766C23.0897 12.432 22.6078 12.6316 22.1053 12.6316H1.89474C1.39222 12.6316 0.910288 12.432 0.554956 12.0766C0.199624 11.7213 0 11.2394 0 10.7368C0 10.2343 0.199624 9.75239 0.554956 9.39706C0.910288 9.04173 1.39222 8.8421 1.89474 8.8421H22.1053ZM22.1053 0C22.6078 0 23.0897 0.199624 23.445 0.554956C23.8004 0.910288 24 1.39222 24 1.89474C24 2.39725 23.8004 2.87919 23.445 3.23452C23.0897 3.58985 22.6078 3.78947 22.1053 3.78947H1.89474C1.39222 3.78947 0.910288 3.58985 0.554956 3.23452C0.199624 2.87919 0 2.39725 0 1.89474C0 1.39222 0.199624 0.910288 0.554956 0.554956C0.910288 0.199624 1.39222 0 1.89474 0H22.1053Z" fill="#495464"/>
</svg>
