<svg width="105" height="106" viewBox="0 0 105 106" fill="none" xmlns="http://www.w3.org/2000/svg">
<path d="M101.222 53.0155C101.096 73.1646 88.377 91.7186 69.3613 98.6028C50.1357 105.571 28.3076 99.5683 15.2526 83.8688C2.28164 68.2533 0.644362 45.4176 11.0967 28.039C21.5491 10.6604 42.3698 1.38344 62.309 5.41326C81.9964 9.4011 97.4442 25.5623 100.676 45.3756C101.054 47.8943 101.18 50.4549 101.222 53.0155C101.222 55.4502 105 55.4502 105 53.0155C104.874 31.2293 91.1056 11.416 70.6206 3.86007C50.1357 -3.69585 26.2506 2.81067 12.398 19.6855C-1.49644 36.6024 -3.46933 61.0752 7.82256 79.881C19.1145 98.6868 41.4883 108.551 63.0227 104.27C84.1793 100.114 101.18 82.3996 104.37 61.0332C104.79 58.3466 105 55.66 105 52.9735C105 50.5808 101.222 50.5808 101.222 53.0155Z" fill="#EE5646"/>
<path d="M81.6605 26.359L51.6467 76.0601C49.6318 80.0059 44.9724 80.2998 42.2858 76.6058L23.0601 53.0146L42.1598 65.9436C44.5105 67.2449 47.1972 66.6152 48.8343 64.3904L81.6605 26.359Z" fill="#A6A6CC"/>
<path d="M79.8147 25.309C73.0143 36.5589 66.214 47.8508 59.4137 59.1007C56.3493 64.18 53.243 69.2592 50.2207 74.3385C49.8429 74.9681 49.5071 75.6818 49.0034 76.1435C47.1564 77.9905 45.0574 76.6892 43.6722 75.0101C42.0351 73.0372 40.4399 71.0642 38.8448 69.0493C34.0594 63.1725 29.3159 57.3377 24.5305 51.4608C23.6909 52.5522 22.8516 53.6437 21.97 54.7771C26.6295 57.9253 31.3309 61.1156 35.9904 64.2639C37.6695 65.3973 39.3066 66.6986 41.0277 67.6641C44.4278 69.595 48.0799 68.3777 50.4726 65.5232C58.2384 56.3302 66.214 47.3051 74.1057 38.1541C77.0861 34.6699 80.1084 31.1858 83.0888 27.7437C84.8519 25.7288 81.8716 22.7064 80.1086 24.7633C73.2243 32.739 66.382 40.6727 59.4977 48.6484C55.8457 52.8461 52.2356 57.0858 48.5836 61.2835C47.6181 62.4169 46.4007 64.2639 44.8895 64.3899C43.0005 64.5578 40.8597 62.4589 39.4324 61.4934C34.3112 58.0093 29.1901 54.5671 24.0689 51.083C21.97 49.6558 20.123 52.6782 21.5082 54.3992C25.8319 59.7304 30.1555 65.0195 34.4792 70.3506C36.4521 72.7853 38.4671 75.22 40.44 77.6966C43.5464 81.5166 49.0033 82.65 52.4454 78.4523C53.4948 77.151 54.3344 75.5138 55.1739 74.0446C56.853 71.2322 58.5321 68.4617 60.2532 65.6492C64.9547 57.8834 69.6141 50.1176 74.3156 42.3937C77.338 37.3565 80.3604 32.3612 83.4248 27.3239C84.852 25.0991 81.2419 22.9583 79.8147 25.309Z" fill="#A6A6CC"/>
</svg>
