<svg width="144" height="37" viewBox="0 0 144 37" fill="none" xmlns="http://www.w3.org/2000/svg">
<path d="M119.609 31.3073H122.059V15.1911H119.609V31.3073ZM141.267 20.993L138.56 27.9551H138.431L135.594 20.993H133.016L137.27 30.7916L134.821 36.2065H137.27L143.845 20.993H141.267V20.993ZM127.731 29.5023C126.957 29.5023 125.797 29.1154 125.797 28.0841C125.797 26.7947 127.215 26.4079 128.375 26.4079C129.407 26.4079 129.922 26.6659 130.567 26.9237C130.309 28.4709 129.02 29.5023 127.731 29.5023V29.5023ZM127.989 20.6062C126.184 20.6062 124.379 21.3797 123.735 23.0558L125.926 23.9582C126.442 23.0557 127.215 22.798 128.118 22.798C129.407 22.798 130.567 23.5715 130.696 24.8609V24.9897C130.309 24.7319 129.278 24.345 128.246 24.345C125.926 24.345 123.606 25.6344 123.606 27.9551C123.606 30.1469 125.539 31.5651 127.602 31.5651C129.278 31.5651 130.051 30.7916 130.696 30.0181H130.825V31.3073H133.145V25.1187C132.887 22.2822 130.696 20.6062 127.989 20.6062H127.989ZM113.164 22.9269H109.683V17.3828H113.164C114.968 17.3828 116 18.93 116 20.0905C115.871 21.5087 114.84 22.9269 113.164 22.9269V22.9269ZM113.035 15.1911H107.234V31.3073H109.683V25.2477H113.035C115.742 25.2477 118.32 23.3137 118.32 20.2193C118.32 17.1251 115.742 15.1911 113.035 15.1911ZM81.58 29.5023C79.9042 29.5023 78.4861 28.0841 78.4861 26.1502C78.4861 24.2162 79.9042 22.798 81.58 22.798C83.2559 22.798 84.545 24.2162 84.545 26.1502C84.545 28.0841 83.2559 29.5023 81.58 29.5023V29.5023ZM84.4161 21.8955C83.7716 21.2508 82.7403 20.6062 81.4512 20.6062C78.7439 20.6062 76.1657 23.0557 76.1657 26.1502C76.1657 29.2444 78.6151 31.5651 81.4512 31.5651C82.7403 31.5651 83.7716 30.9206 84.2871 30.2759H84.4161V31.0494C84.4161 33.1123 83.2559 34.2726 81.451 34.2726C80.033 34.2726 79.0018 33.2413 78.7439 32.3388L76.6814 33.2413C77.3258 34.6595 78.8728 36.4645 81.58 36.4645C84.4161 36.4645 86.7365 34.7883 86.7365 30.7916V20.993H84.4161V21.8955V21.8955ZM88.2835 31.3073H90.7329V15.1911H88.2835V31.3073ZM94.3424 26.0212C94.3424 23.9582 96.0183 22.798 97.1785 22.798C98.0808 22.798 98.9832 23.3137 99.2411 23.9582L94.3424 26.0212ZM101.819 24.2162C101.304 22.9269 100.015 20.735 97.1785 20.735C94.3424 20.735 92.022 22.9269 92.022 26.279C92.022 29.3734 94.3424 31.8231 97.4364 31.8231C99.8856 31.8231 101.433 30.2759 101.948 29.3734L100.144 28.0841C99.4989 28.9866 98.7255 29.6311 97.4364 29.6311C96.1471 29.6311 95.3737 29.1154 94.7291 27.9551L102.077 24.8609L101.819 24.2162ZM43.2929 22.4112V24.7319H48.8362C48.7072 26.0212 48.1915 27.0526 47.5471 27.6972C46.7735 28.4709 45.4844 29.3734 43.2929 29.3734C39.8122 29.3734 37.2341 26.6659 37.2341 23.1847C37.2341 19.7036 39.9412 16.9961 43.2929 16.9961C45.0977 16.9961 46.5157 17.7696 47.5471 18.6723L49.2229 16.9961C47.8048 15.7068 46.0001 14.6754 43.4217 14.6754C38.7809 14.6754 34.7847 18.5433 34.7847 23.1847C34.7847 27.8262 38.7809 31.6941 43.4217 31.6941C46.0001 31.6941 47.8048 30.9206 49.3518 29.2444C50.8988 27.6972 51.4143 25.5054 51.4143 23.8294C51.4143 23.3137 51.4143 22.798 51.2855 22.4112H43.2929V22.4112ZM57.6022 29.5023C55.9264 29.5023 54.5083 28.0841 54.5083 26.1502C54.5083 24.2162 55.9264 22.798 57.6022 22.798C59.2781 22.798 60.6962 24.0872 60.6962 26.1502C60.6962 28.0841 59.2781 29.5023 57.6022 29.5023V29.5023ZM57.6022 20.735C54.5083 20.735 52.059 23.0557 52.059 26.279C52.059 29.3734 54.5083 31.8231 57.6022 31.8231C60.6962 31.8231 63.1454 29.5023 63.1454 26.279C63.1454 22.9269 60.6962 20.735 57.6022 20.735ZM69.5912 29.5023C67.9152 29.5023 66.4972 28.0841 66.4972 26.1502C66.4972 24.2162 67.9152 22.798 69.5912 22.798C71.2669 22.798 72.685 24.0872 72.685 26.1502C72.685 28.0841 71.2669 29.5023 69.5912 29.5023ZM69.5912 20.735C66.4971 20.735 64.0479 23.0557 64.0479 26.279C64.0479 29.3734 66.4971 31.8231 69.5912 31.8231C72.685 31.8231 75.1344 29.5023 75.1344 26.279C75.1344 22.9269 72.685 20.735 69.5912 20.735Z" fill="white"/>
<path d="M39.7041 6.86221L38.9767 4.82737L38.6811 3.83828H38.5902L38.2947 4.82737L37.5671 6.86221H39.7041ZM37.7604 2.07601H39.511L42.5688 10.2161H40.875L40.2043 8.27197H37.0669L36.3964 10.2161H34.7026L37.7604 2.07601Z" fill="white"/>
<path d="M43.5234 2.07601H45.3083L48.5819 7.53302H48.673L48.5819 5.96421V2.07601H50.1051V10.2161H48.491L45.0354 4.45208H44.9445L45.0354 6.02105V10.2161H43.5234V2.07601Z" fill="white"/>
<path d="M54.4244 8.76077C54.8714 8.76077 55.2655 8.69828 55.6065 8.57313C55.9475 8.44814 56.2318 8.27197 56.459 8.04476C56.6863 7.81723 56.8568 7.54266 56.9705 7.22055C57.0842 6.89845 57.141 6.54028 57.141 6.14604C57.141 5.75213 57.0842 5.39379 56.9705 5.07186C56.8568 4.74958 56.6863 4.47485 56.459 4.24748C56.2318 4.02011 55.9475 3.84377 55.6065 3.71878C55.2655 3.5938 54.8714 3.53114 54.4244 3.53114H53.2762V8.76077H54.4244ZM51.7417 2.07601H54.4925C55.1365 2.07601 55.7163 2.17457 56.2318 2.37169C56.747 2.56881 57.1865 2.84737 57.5503 3.2072C57.9141 3.5672 58.1924 3.99734 58.3857 4.49762C58.579 4.99789 58.6757 5.54737 58.6757 6.14604C58.6757 6.75252 58.579 7.30565 58.3857 7.80593C58.1924 8.30604 57.9141 8.73451 57.5503 9.09069C57.1865 9.44687 56.747 9.72343 56.2318 9.92055C55.7163 10.1177 55.1365 10.2161 54.4925 10.2161H51.7417V2.07601" fill="white"/>
<path d="M62.8706 5.74814C63.2191 5.74814 63.5053 5.6421 63.7288 5.42986C63.9523 5.21778 64.0641 4.9487 64.0641 4.6226C64.0641 4.47867 64.0396 4.33856 63.9902 4.20194C63.9408 4.06548 63.8669 3.94449 63.7687 3.83828C63.67 3.73208 63.547 3.64698 63.3992 3.58249C63.2513 3.51817 63.0827 3.48576 62.8934 3.48576H61.4497V5.74814H62.8706ZM59.915 2.07601H62.8819C63.2912 2.07601 63.6623 2.1405 63.9958 2.26931C64.3294 2.39828 64.6154 2.57629 64.8542 2.80366C65.0928 3.03103 65.2765 3.30194 65.4054 3.61656C65.5342 3.93119 65.5987 4.27424 65.5987 4.64521C65.5987 4.91828 65.5531 5.17407 65.4624 5.41274C65.3713 5.65158 65.2464 5.86748 65.0872 6.06077C64.928 6.25407 64.7423 6.4246 64.5301 6.57235C64.3179 6.72028 64.0944 6.83579 63.8596 6.91922L63.8481 6.99883L66.0306 10.1252V10.2161H64.2687L62.1658 7.15789H61.4497V10.2161H59.915V2.07601" fill="white"/>
<path d="M70.8162 8.94282C71.1951 8.94282 71.5495 8.87468 71.8792 8.73806C72.2087 8.60177 72.4967 8.4123 72.743 8.1698C72.9893 7.92731 73.1825 7.63363 73.3228 7.28876C73.4629 6.94405 73.533 6.56311 73.533 6.1461C73.533 5.72942 73.4629 5.34848 73.3228 5.0036C73.1825 4.65872 72.9893 4.36521 72.743 4.12255C72.4967 3.88006 72.2087 3.69042 71.8792 3.55396C71.5495 3.41767 71.1951 3.34953 70.8162 3.34953C70.4374 3.34953 70.083 3.41767 69.7535 3.55396C69.4238 3.69042 69.1358 3.88006 68.8895 4.12255C68.6432 4.36521 68.45 4.65872 68.3099 5.0036C68.1694 5.34848 68.0995 5.72942 68.0995 6.1461C68.0995 6.56311 68.1694 6.94405 68.3099 7.28876C68.45 7.63363 68.6432 7.92731 68.8895 8.1698C69.1358 8.4123 69.4238 8.60177 69.7535 8.73806C70.083 8.87468 70.4374 8.94282 70.8162 8.94282ZM70.8162 10.3979C70.2098 10.3979 69.6473 10.2881 69.1283 10.0684C68.6092 9.84864 68.16 9.54748 67.7812 9.16454C67.4022 8.78194 67.1049 8.33086 66.889 7.81164C66.673 7.29258 66.5649 6.73712 66.5649 6.1461C66.5649 5.55491 66.673 4.99978 66.889 4.48055C67.1049 3.9615 67.4022 3.51042 67.7812 3.12781C68.16 2.74504 68.6092 2.44371 69.1283 2.22399C69.6473 2.00427 70.2098 1.89424 70.8162 1.89424C71.4225 1.89424 71.9852 2.00427 72.5043 2.22399C73.0233 2.44371 73.4724 2.74504 73.8514 3.12781C74.2302 3.51042 74.5276 3.9615 74.7437 4.48055C74.9595 4.99978 75.0676 5.55491 75.0676 6.1461C75.0676 6.73712 74.9595 7.29258 74.7437 7.81164C74.5276 8.33086 74.2302 8.78194 73.8514 9.16454C73.4724 9.54748 73.0233 9.84864 72.5043 10.0684C71.9852 10.2881 71.4225 10.3979 70.8162 10.3979Z" fill="white"/>
<path d="M76.3062 2.07601H77.8409V10.2161H76.3062V2.07601Z" fill="white"/>
<path d="M82.1603 8.76077C82.6073 8.76077 83.0015 8.69828 83.3425 8.57313C83.6835 8.44814 83.9677 8.27197 84.195 8.04476C84.4224 7.81723 84.5929 7.54266 84.7066 7.22055C84.8202 6.89845 84.8771 6.54028 84.8771 6.14604C84.8771 5.75213 84.8202 5.39379 84.7066 5.07186C84.5929 4.74958 84.4224 4.47485 84.195 4.24748C83.9677 4.02011 83.6835 3.84377 83.3425 3.71878C83.0015 3.5938 82.6073 3.53114 82.1603 3.53114H81.0121V8.76077H82.1603ZM79.4775 2.07601H82.2284C82.8725 2.07601 83.4522 2.17457 83.9677 2.37169C84.4829 2.56881 84.9226 2.84737 85.2864 3.2072C85.65 3.5672 85.9285 3.99734 86.1218 4.49762C86.3151 4.99789 86.4116 5.54737 86.4116 6.14604C86.4116 6.75252 86.3151 7.30565 86.1218 7.80593C85.9285 8.30604 85.65 8.73451 85.2864 9.09069C84.9226 9.44687 84.4829 9.72343 83.9677 9.92055C83.4522 10.1177 82.8725 10.2161 82.2284 10.2161H79.4775V2.07601" fill="white"/>
<path d="M94.1299 6.86221L93.4025 4.82737L93.1068 3.83828H93.0159L92.7203 4.82737L91.9929 6.86221H94.1299ZM92.1862 2.07601H93.9368L96.9945 10.2161H95.3008L94.6301 8.27197H91.4927L90.8222 10.2161H89.1284L92.1862 2.07601Z" fill="white"/>
<path d="M100.836 5.77091C101.238 5.77091 101.541 5.65706 101.746 5.42986C101.95 5.20249 102.053 4.94105 102.053 4.64521C102.053 4.50144 102.028 4.36116 101.979 4.22471C101.93 4.08825 101.854 3.96892 101.752 3.8667C101.649 3.76432 101.522 3.68288 101.371 3.62222C101.219 3.56172 101.041 3.53114 100.836 3.53114H99.4839V5.77091H100.836ZM97.9492 10.2161V2.07601H100.814C101.2 2.07601 101.562 2.1385 101.899 2.26349C102.236 2.38864 102.53 2.56499 102.78 2.79236C103.031 3.01956 103.227 3.29064 103.371 3.60526C103.515 3.91972 103.587 4.26643 103.587 4.64521C103.587 5.03197 103.515 5.38249 103.371 5.69712C103.227 6.01158 103.031 6.28249 102.78 6.50986C102.53 6.73706 102.236 6.91341 101.899 7.03856C101.562 7.16371 101.2 7.22604 100.814 7.22604H99.4839V10.2161H97.9492" fill="white"/>
<path d="M107.566 5.77091C107.967 5.77091 108.27 5.65706 108.475 5.42986C108.68 5.20249 108.782 4.94105 108.782 4.64521C108.782 4.50144 108.757 4.36116 108.708 4.22471C108.659 4.08825 108.583 3.96892 108.481 3.8667C108.378 3.76432 108.251 3.68288 108.1 3.62222C107.948 3.56172 107.77 3.53114 107.566 3.53114H106.213V5.77091H107.566ZM104.678 10.2161V2.07601H107.543C107.929 2.07601 108.291 2.1385 108.628 2.26349C108.965 2.38864 109.259 2.56499 109.51 2.79236C109.76 3.01956 109.956 3.29064 110.1 3.60526C110.244 3.91972 110.317 4.26643 110.317 4.64521C110.317 5.03197 110.244 5.38249 110.1 5.69712C109.956 6.01158 109.76 6.28249 109.51 6.50986C109.259 6.73706 108.965 6.91341 108.628 7.03856C108.291 7.16371 107.929 7.22604 107.543 7.22604H106.213V10.2161H104.678" fill="white"/>
<path d="M117.535 8.94282C117.913 8.94282 118.268 8.87468 118.597 8.73806C118.927 8.60177 119.215 8.4123 119.461 8.1698C119.707 7.92731 119.901 7.63363 120.041 7.28876C120.181 6.94405 120.251 6.56311 120.251 6.1461C120.251 5.72942 120.181 5.34848 120.041 5.0036C119.901 4.65872 119.707 4.36521 119.461 4.12255C119.215 3.88006 118.927 3.69042 118.597 3.55396C118.268 3.41767 117.913 3.34953 117.535 3.34953C117.155 3.34953 116.801 3.41767 116.472 3.55396C116.142 3.69042 115.854 3.88006 115.608 4.12255C115.361 4.36521 115.168 4.65872 115.028 5.0036C114.888 5.34848 114.818 5.72942 114.818 6.1461C114.818 6.56311 114.888 6.94405 115.028 7.28876C115.168 7.63363 115.361 7.92731 115.608 8.1698C115.854 8.4123 116.142 8.60177 116.472 8.73806C116.801 8.87468 117.155 8.94282 117.535 8.94282ZM117.535 10.3979C116.928 10.3979 116.365 10.2881 115.846 10.0684C115.327 9.84864 114.878 9.54748 114.499 9.16454C114.12 8.78194 113.823 8.33086 113.607 7.81164C113.391 7.29258 113.283 6.73712 113.283 6.1461C113.283 5.55491 113.391 4.99978 113.607 4.48055C113.823 3.9615 114.12 3.51042 114.499 3.12781C114.878 2.74504 115.327 2.44371 115.846 2.22399C116.365 2.00427 116.928 1.89424 117.535 1.89424C118.141 1.89424 118.703 2.00427 119.222 2.22399C119.741 2.44371 120.19 2.74504 120.57 3.12781C120.948 3.51042 121.246 3.9615 121.462 4.48055C121.678 4.99978 121.786 5.55491 121.786 6.1461C121.786 6.73712 121.678 7.29258 121.462 7.81164C121.246 8.33086 120.948 8.78194 120.57 9.16454C120.19 9.54748 119.741 9.84864 119.222 10.0684C118.703 10.2881 118.141 10.3979 117.535 10.3979Z" fill="white"/>
<path d="M123.025 2.07601H124.81L128.083 7.53302H128.174L128.083 5.96421V2.07601H129.606V10.2161H127.992L124.537 4.45208H124.446L124.537 6.02105V10.2161H123.025V2.07601" fill="white"/>
<path fill-rule="evenodd" clip-rule="evenodd" d="M22.225 11.6183L2.03418 3.5698e-05L17.983 15.8683L22.225 11.6183Z" fill="white"/>
<path fill-rule="evenodd" clip-rule="evenodd" d="M0.160866 0.118727C0.0838727 0.258672 0 0.420225 0 0.598396V33.4747C0 33.5779 0.0536777 33.6752 0.0812143 33.7666L16.9712 16.8441L0.160866 0.118727Z" fill="white"/>
<path fill-rule="evenodd" clip-rule="evenodd" d="M17.9861 17.8165L1.42725 34.4071C1.47561 34.3885 1.52363 34.3668 1.57066 34.3398L22.493 22.3007L17.9861 17.8165" fill="white"/>
<path fill-rule="evenodd" clip-rule="evenodd" d="M30.1383 16.1717L23.4624 12.3302L18.9604 16.8408L23.7317 21.5881L30.1383 17.9017C30.8053 17.5179 30.8053 16.5554 30.1383 16.1717Z" fill="white"/>
</svg>
