<svg width="144" height="37" viewBox="0 0 144 37" fill="none" xmlns="http://www.w3.org/2000/svg">
<path d="M119.609 31.5604H122.059V15.4442H119.609V31.5604ZM141.267 21.246L138.56 28.2082H138.431L135.594 21.246H133.016L137.27 31.0446L134.821 36.4596H137.27L143.845 21.246H141.267ZM127.731 29.7554C126.957 29.7554 125.797 29.3685 125.797 28.3372C125.797 27.0477 127.215 26.661 128.375 26.661C129.407 26.661 129.922 26.9189 130.567 27.1767C130.309 28.7239 129.02 29.7554 127.731 29.7554ZM127.989 20.8593C126.184 20.8593 124.379 21.6328 123.735 23.3088L125.926 24.2113C126.442 23.3088 127.215 23.051 128.118 23.051C129.407 23.051 130.567 23.8245 130.696 25.114V25.2428C130.309 24.985 129.278 24.5981 128.246 24.5981C125.926 24.5981 123.606 25.8875 123.606 28.2082C123.606 30.3999 125.539 31.8181 127.602 31.8181C129.278 31.8181 130.051 31.0446 130.696 30.2711H130.825V31.5604H133.145V25.3717C132.887 22.5353 130.696 20.8593 127.989 20.8593H127.989ZM113.164 23.18H109.683V17.6359H113.164C114.968 17.6359 116 19.1831 116 20.3435C115.871 21.7618 114.84 23.18 113.164 23.18ZM113.035 15.4442H107.234V31.5604H109.683V25.5007H113.035C115.742 25.5007 118.32 23.5668 118.32 20.4723C118.32 17.3781 115.742 15.4442 113.035 15.4442ZM81.58 29.7554C79.9042 29.7554 78.4861 28.3372 78.4861 26.4032C78.4861 24.4692 79.9042 23.051 81.58 23.051C83.2559 23.051 84.545 24.4692 84.545 26.4032C84.545 28.3372 83.2559 29.7554 81.58 29.7554ZM84.4161 22.1485C83.7716 21.5038 82.7403 20.8593 81.4512 20.8593C78.7439 20.8593 76.1657 23.3088 76.1657 26.4032C76.1657 29.4974 78.6151 31.8181 81.4512 31.8181C82.7403 31.8181 83.7716 31.1736 84.2871 30.5289H84.4161V31.3024C84.4161 33.3654 83.2559 34.5256 81.451 34.5256C80.033 34.5256 79.0018 33.4943 78.7439 32.5918L76.6814 33.4943C77.3258 34.9126 78.8728 36.7175 81.58 36.7175C84.4161 36.7175 86.7365 35.0414 86.7365 31.0446V21.246H84.4161V22.1485ZM88.2835 31.5604H90.7329V15.4442H88.2835V31.5604ZM94.3424 26.2742C94.3424 24.2113 96.0183 23.051 97.1785 23.051C98.0808 23.051 98.9832 23.5668 99.2411 24.2113L94.3424 26.2742ZM101.819 24.4692C101.304 23.18 100.015 20.9881 97.1785 20.9881C94.3424 20.9881 92.022 23.18 92.022 26.532C92.022 29.6264 94.3424 32.0761 97.4364 32.0761C99.8856 32.0761 101.433 30.5289 101.948 29.6264L100.144 28.3372C99.4989 29.2397 98.7255 29.8842 97.4364 29.8842C96.1471 29.8842 95.3737 29.3685 94.7291 28.2082L102.077 25.114L101.819 24.4692ZM43.2929 22.6643V24.985H48.8362C48.7072 26.2742 48.1915 27.3057 47.5471 27.9502C46.7735 28.7239 45.4844 29.6264 43.2929 29.6264C39.8122 29.6264 37.2341 26.9189 37.2341 23.4378C37.2341 19.9566 39.9412 17.2491 43.2929 17.2491C45.0977 17.2491 46.5157 18.0227 47.5471 18.9253L49.2229 17.2491C47.8048 15.9599 46.0001 14.9284 43.4217 14.9284C38.7809 14.9284 34.7847 18.7963 34.7847 23.4378C34.7847 28.0792 38.7809 31.9471 43.4217 31.9471C46.0001 31.9471 47.8048 31.1736 49.3518 29.4974C50.8988 27.9502 51.4143 25.7585 51.4143 24.0825C51.4143 23.5668 51.4143 23.051 51.2855 22.6643H43.2929ZM57.6022 29.7554C55.9264 29.7554 54.5083 28.3372 54.5083 26.4032C54.5083 24.4692 55.9264 23.051 57.6022 23.051C59.2781 23.051 60.6962 24.3403 60.6962 26.4032C60.6962 28.3372 59.2781 29.7554 57.6022 29.7554ZM57.6022 20.9881C54.5083 20.9881 52.059 23.3088 52.059 26.532C52.059 29.6264 54.5083 32.0761 57.6022 32.0761C60.6962 32.0761 63.1454 29.7554 63.1454 26.532C63.1454 23.18 60.6962 20.9881 57.6022 20.9881ZM69.5912 29.7554C67.9152 29.7554 66.4972 28.3372 66.4972 26.4032C66.4972 24.4692 67.9152 23.051 69.5912 23.051C71.2669 23.051 72.685 24.3403 72.685 26.4032C72.685 28.3372 71.2669 29.7554 69.5912 29.7554ZM69.5912 20.9881C66.4971 20.9881 64.0479 23.3088 64.0479 26.532C64.0479 29.6264 66.4971 32.0761 69.5912 32.0761C72.685 32.0761 75.1344 29.7554 75.1344 26.532C75.1344 23.18 72.685 20.9881 69.5912 20.9881Z" fill="#EE5646"/>
<path d="M39.7041 7.11539L38.9767 5.08054L38.6811 4.09146H38.5902L38.2947 5.08054L37.5671 7.11539H39.7041ZM37.7604 2.32918H39.511L42.5688 10.4692H40.875L40.2043 8.52514H37.0669L36.3964 10.4692H34.7026L37.7604 2.32918Z" fill="#EE5646"/>
<path d="M43.5234 2.32918H45.3083L48.5819 7.78619H48.673L48.5819 6.21738V2.32918H50.1051V10.4692H48.491L45.0354 4.70525H44.9445L45.0354 6.27423V10.4692H43.5234V2.32918Z" fill="#EE5646"/>
<path d="M54.4244 9.01395C54.8714 9.01395 55.2655 8.95145 55.6065 8.8263C55.9475 8.70131 56.2318 8.52514 56.459 8.29794C56.6863 8.0704 56.8568 7.79583 56.9705 7.47373C57.0842 7.15162 57.141 6.79345 57.141 6.39921C57.141 6.00531 57.0842 5.64697 56.9705 5.32503C56.8568 5.00276 56.6863 4.72802 56.459 4.50065C56.2318 4.27328 55.9475 4.09694 55.6065 3.97196C55.2655 3.84697 54.8714 3.78431 54.4244 3.78431H53.2762V9.01395H54.4244ZM51.7417 2.32918H54.4925C55.1365 2.32918 55.7163 2.42774 56.2318 2.62486C56.747 2.82198 57.1865 3.10054 57.5503 3.46038C57.9141 3.82038 58.1924 4.25051 58.3857 4.75079C58.579 5.25107 58.6757 5.80054 58.6757 6.39921C58.6757 7.0057 58.579 7.55882 58.3857 8.0591C58.1924 8.55921 57.9141 8.98769 57.5503 9.34387C57.1865 9.70004 56.747 9.97661 56.2318 10.1737C55.7163 10.3708 55.1365 10.4692 54.4925 10.4692H51.7417V2.32918Z" fill="#EE5646"/>
<path d="M62.8706 6.00132C63.2191 6.00132 63.5053 5.89528 63.7288 5.68303C63.9523 5.47096 64.0641 5.20187 64.0641 4.87578C64.0641 4.73184 64.0396 4.59173 63.9902 4.45511C63.9408 4.31866 63.8669 4.19766 63.7687 4.09146C63.67 3.98525 63.547 3.90015 63.3992 3.83566C63.2513 3.77134 63.0827 3.73894 62.8934 3.73894H61.4497V6.00132H62.8706ZM59.915 2.32918H62.8819C63.2912 2.32918 63.6623 2.39367 63.9958 2.52248C64.3294 2.65146 64.6154 2.82946 64.8542 3.05683C65.0928 3.2842 65.2765 3.55511 65.4054 3.86974C65.5342 4.18436 65.5987 4.52741 65.5987 4.89838C65.5987 5.17146 65.5531 5.42725 65.4624 5.66592C65.3713 5.90475 65.2464 6.12065 65.0872 6.31395C64.928 6.50724 64.7423 6.67777 64.5301 6.82553C64.3179 6.97345 64.0944 7.08896 63.8596 7.1724L63.8481 7.25201L66.0306 10.3783V10.4692H64.2687L62.1658 7.41107H61.4497V10.4692H59.915V2.32918Z" fill="#EE5646"/>
<path d="M70.8162 9.196C71.1951 9.196 71.5495 9.12786 71.8792 8.99124C72.2087 8.85495 72.4967 8.66547 72.743 8.42298C72.9893 8.18049 73.1825 7.88681 73.3228 7.54193C73.4629 7.19722 73.533 6.81628 73.533 6.39927C73.533 5.98259 73.4629 5.60165 73.3228 5.25677C73.1825 4.9119 72.9893 4.61838 72.743 4.37573C72.4967 4.13323 72.2087 3.94359 71.8792 3.80713C71.5495 3.67085 71.1951 3.60271 70.8162 3.60271C70.4374 3.60271 70.083 3.67085 69.7535 3.80713C69.4238 3.94359 69.1358 4.13323 68.8895 4.37573C68.6432 4.61838 68.45 4.9119 68.3099 5.25677C68.1694 5.60165 68.0995 5.98259 68.0995 6.39927C68.0995 6.81628 68.1694 7.19722 68.3099 7.54193C68.45 7.88681 68.6432 8.18049 68.8895 8.42298C69.1358 8.66547 69.4238 8.85495 69.7535 8.99124C70.083 9.12786 70.4374 9.196 70.8162 9.196ZM70.8162 10.6511C70.2098 10.6511 69.6473 10.5413 69.1283 10.3215C68.6092 10.1018 68.16 9.80065 67.7812 9.41772C67.4022 9.03511 67.1049 8.58403 66.889 8.06481C66.673 7.54575 66.5649 6.9903 66.5649 6.39927C66.5649 5.80808 66.673 5.25295 66.889 4.73373C67.1049 4.21467 67.4022 3.76359 67.7812 3.38099C68.16 2.99822 68.6092 2.69689 69.1283 2.47716C69.6473 2.25744 70.2098 2.14741 70.8162 2.14741C71.4225 2.14741 71.9852 2.25744 72.5043 2.47716C73.0233 2.69689 73.4724 2.99822 73.8514 3.38099C74.2302 3.76359 74.5276 4.21467 74.7437 4.73373C74.9595 5.25295 75.0676 5.80808 75.0676 6.39927C75.0676 6.9903 74.9595 7.54575 74.7437 8.06481C74.5276 8.58403 74.2302 9.03511 73.8514 9.41772C73.4724 9.80065 73.0233 10.1018 72.5043 10.3215C71.9852 10.5413 71.4225 10.6511 70.8162 10.6511Z" fill="#EE5646"/>
<path d="M76.3062 2.32918H77.8409V10.4692H76.3062V2.32918Z" fill="#EE5646"/>
<path d="M82.1603 9.01395C82.6073 9.01395 83.0015 8.95145 83.3425 8.8263C83.6835 8.70131 83.9677 8.52514 84.195 8.29794C84.4224 8.0704 84.5929 7.79583 84.7066 7.47373C84.8202 7.15162 84.8771 6.79345 84.8771 6.39921C84.8771 6.00531 84.8202 5.64697 84.7066 5.32503C84.5929 5.00276 84.4224 4.72802 84.195 4.50065C83.9677 4.27328 83.6835 4.09694 83.3425 3.97196C83.0015 3.84697 82.6073 3.78431 82.1603 3.78431H81.0121V9.01395H82.1603ZM79.4775 2.32918H82.2284C82.8725 2.32918 83.4522 2.42774 83.9677 2.62486C84.4829 2.82198 84.9226 3.10054 85.2864 3.46038C85.65 3.82038 85.9285 4.25051 86.1218 4.75079C86.3151 5.25107 86.4116 5.80054 86.4116 6.39921C86.4116 7.0057 86.3151 7.55882 86.1218 8.0591C85.9285 8.55921 85.65 8.98769 85.2864 9.34387C84.9226 9.70004 84.4829 9.97661 83.9677 10.1737C83.4522 10.3708 82.8725 10.4692 82.2284 10.4692H79.4775V2.32918Z" fill="#EE5646"/>
<path d="M94.1299 7.11539L93.4025 5.08054L93.1068 4.09146H93.0159L92.7203 5.08054L91.9929 7.11539H94.1299ZM92.1862 2.32918H93.9368L96.9945 10.4692H95.3008L94.6301 8.52514H91.4927L90.8222 10.4692H89.1284L92.1862 2.32918Z" fill="#EE5646"/>
<path d="M100.836 6.02409C101.238 6.02409 101.541 5.91024 101.746 5.68303C101.95 5.45567 102.053 5.19423 102.053 4.89838C102.053 4.75461 102.028 4.61434 101.979 4.47788C101.93 4.34143 101.854 4.22209 101.752 4.11988C101.649 4.01749 101.522 3.93605 101.371 3.87539C101.219 3.81489 101.041 3.78431 100.836 3.78431H99.4839V6.02409H100.836ZM97.9492 10.4692V2.32918H100.814C101.2 2.32918 101.562 2.39168 101.899 2.51666C102.236 2.64182 102.53 2.81816 102.78 3.04553C103.031 3.27273 103.227 3.54381 103.371 3.85844C103.515 4.1729 103.587 4.5196 103.587 4.89838C103.587 5.28514 103.515 5.63567 103.371 5.95029C103.227 6.26475 103.031 6.53567 102.78 6.76303C102.53 6.99024 102.236 7.16658 101.899 7.29173C101.562 7.41689 101.2 7.47921 100.814 7.47921H99.4839V10.4692H97.9492Z" fill="#EE5646"/>
<path d="M107.566 6.02409C107.967 6.02409 108.27 5.91024 108.475 5.68303C108.68 5.45567 108.782 5.19423 108.782 4.89838C108.782 4.75461 108.757 4.61434 108.708 4.47788C108.659 4.34143 108.583 4.22209 108.481 4.11988C108.378 4.01749 108.251 3.93605 108.1 3.87539C107.948 3.81489 107.77 3.78431 107.566 3.78431H106.213V6.02409H107.566ZM104.678 10.4692V2.32918H107.543C107.929 2.32918 108.291 2.39168 108.628 2.51666C108.965 2.64182 109.259 2.81816 109.51 3.04553C109.76 3.27273 109.956 3.54381 110.1 3.85844C110.244 4.1729 110.317 4.5196 110.317 4.89838C110.317 5.28514 110.244 5.63567 110.1 5.95029C109.956 6.26475 109.76 6.53567 109.51 6.76303C109.259 6.99024 108.965 7.16658 108.628 7.29173C108.291 7.41689 107.929 7.47921 107.543 7.47921H106.213V10.4692H104.678Z" fill="#EE5646"/>
<path d="M117.535 9.196C117.913 9.196 118.268 9.12786 118.597 8.99124C118.927 8.85495 119.215 8.66547 119.461 8.42298C119.707 8.18049 119.901 7.88681 120.041 7.54193C120.181 7.19722 120.251 6.81628 120.251 6.39927C120.251 5.98259 120.181 5.60165 120.041 5.25677C119.901 4.9119 119.707 4.61838 119.461 4.37573C119.215 4.13323 118.927 3.94359 118.597 3.80713C118.268 3.67085 117.913 3.60271 117.535 3.60271C117.155 3.60271 116.801 3.67085 116.472 3.80713C116.142 3.94359 115.854 4.13323 115.608 4.37573C115.362 4.61838 115.168 4.9119 115.028 5.25677C114.888 5.60165 114.818 5.98259 114.818 6.39927C114.818 6.81628 114.888 7.19722 115.028 7.54193C115.168 7.88681 115.362 8.18049 115.608 8.42298C115.854 8.66547 116.142 8.85495 116.472 8.99124C116.801 9.12786 117.155 9.196 117.535 9.196ZM117.535 10.6511C116.928 10.6511 116.365 10.5413 115.846 10.3215C115.327 10.1018 114.878 9.80065 114.499 9.41772C114.12 9.03511 113.823 8.58403 113.607 8.06481C113.391 7.54575 113.283 6.9903 113.283 6.39927C113.283 5.80808 113.391 5.25295 113.607 4.73373C113.823 4.21467 114.12 3.76359 114.499 3.38099C114.878 2.99822 115.327 2.69689 115.846 2.47716C116.365 2.25744 116.928 2.14741 117.535 2.14741C118.141 2.14741 118.703 2.25744 119.222 2.47716C119.741 2.69689 120.19 2.99822 120.57 3.38099C120.948 3.76359 121.246 4.21467 121.462 4.73373C121.678 5.25295 121.786 5.80808 121.786 6.39927C121.786 6.9903 121.678 7.54575 121.462 8.06481C121.246 8.58403 120.948 9.03511 120.57 9.41772C120.19 9.80065 119.741 10.1018 119.222 10.3215C118.703 10.5413 118.141 10.6511 117.535 10.6511Z" fill="#EE5646"/>
<path d="M123.025 2.32918H124.81L128.083 7.78619H128.174L128.083 6.21738V2.32918H129.606V10.4692H127.992L124.537 4.70525H124.446L124.537 6.27423V10.4692H123.025V2.32918Z" fill="#EE5646"/>
<path fill-rule="evenodd" clip-rule="evenodd" d="M22.225 11.8713L2.03418 0.253087L17.983 16.1213L22.225 11.8713Z" fill="#EE5646"/>
<path fill-rule="evenodd" clip-rule="evenodd" d="M0.160866 0.371902C0.0838727 0.511845 0 0.673397 0 0.85157V33.7279C0 33.8311 0.0536777 33.9284 0.0812143 34.0198L16.9712 17.0973L0.160866 0.371902Z" fill="#EE5646"/>
<path fill-rule="evenodd" clip-rule="evenodd" d="M17.9861 18.0696L1.42725 34.6602C1.47561 34.6415 1.52363 34.6199 1.57066 34.5928L22.493 22.5538L17.9861 18.0696Z" fill="#EE5646"/>
<path fill-rule="evenodd" clip-rule="evenodd" d="M30.1383 16.4249L23.4624 12.5834L18.9604 17.094L23.7317 21.8413L30.1383 18.1549C30.8053 17.7711 30.8053 16.8086 30.1383 16.4249Z" fill="#EE5646"/>
</svg>
