<svg width="188" height="58" viewBox="0 0 188 58" fill="none" xmlns="http://www.w3.org/2000/svg">
<rect width="188" height="58" rx="29" fill="#EE5646"/>
<path d="M145.609 42.3073H148.059V26.1911H145.609V42.3073ZM167.267 31.993L164.56 38.9551H164.431L161.594 31.993H159.016L163.27 41.7916L160.821 47.2065H163.27L169.845 31.993H167.267ZM153.731 40.5023C152.957 40.5023 151.797 40.1154 151.797 39.0841C151.797 37.7947 153.215 37.4079 154.375 37.4079C155.407 37.4079 155.922 37.6659 156.567 37.9237C156.309 39.4709 155.02 40.5023 153.731 40.5023ZM153.989 31.6062C152.184 31.6062 150.379 32.3797 149.735 34.0558L151.926 34.9582C152.442 34.0557 153.215 33.798 154.118 33.798C155.407 33.798 156.567 34.5715 156.696 35.8609V35.9897C156.309 35.7319 155.278 35.345 154.246 35.345C151.926 35.345 149.606 36.6344 149.606 38.9551C149.606 41.1469 151.539 42.5651 153.602 42.5651C155.278 42.5651 156.051 41.7916 156.696 41.0181H156.825V42.3073H159.145V36.1187C158.887 33.2822 156.696 31.6062 153.989 31.6062H153.989ZM139.164 33.9269H135.683V28.3828H139.164C140.968 28.3828 142 29.93 142 31.0905C141.871 32.5087 140.84 33.9269 139.164 33.9269ZM139.035 26.1911H133.234V42.3073H135.683V36.2477H139.035C141.742 36.2477 144.32 34.3137 144.32 31.2193C144.32 28.1251 141.742 26.1911 139.035 26.1911ZM107.58 40.5023C105.904 40.5023 104.486 39.0841 104.486 37.1502C104.486 35.2162 105.904 33.798 107.58 33.798C109.256 33.798 110.545 35.2162 110.545 37.1502C110.545 39.0841 109.256 40.5023 107.58 40.5023ZM110.416 32.8955C109.772 32.2508 108.74 31.6062 107.451 31.6062C104.744 31.6062 102.166 34.0557 102.166 37.1502C102.166 40.2444 104.615 42.5651 107.451 42.5651C108.74 42.5651 109.772 41.9206 110.287 41.2759H110.416V42.0494C110.416 44.1123 109.256 45.2726 107.451 45.2726C106.033 45.2726 105.002 44.2413 104.744 43.3388L102.681 44.2413C103.326 45.6595 104.873 47.4645 107.58 47.4645C110.416 47.4645 112.736 45.7883 112.736 41.7916V31.993H110.416V32.8955ZM114.283 42.3073H116.733V26.1911H114.283V42.3073ZM120.342 37.0212C120.342 34.9582 122.018 33.798 123.178 33.798C124.081 33.798 124.983 34.3137 125.241 34.9582L120.342 37.0212ZM127.819 35.2162C127.304 33.9269 126.015 31.735 123.178 31.735C120.342 31.735 118.022 33.9269 118.022 37.279C118.022 40.3734 120.342 42.8231 123.436 42.8231C125.886 42.8231 127.433 41.2759 127.948 40.3734L126.144 39.0841C125.499 39.9866 124.725 40.6311 123.436 40.6311C122.147 40.6311 121.374 40.1154 120.729 38.9551L128.077 35.8609L127.819 35.2162ZM69.2929 33.4112V35.7319H74.8362C74.7072 37.0212 74.1915 38.0526 73.5471 38.6972C72.7735 39.4709 71.4844 40.3734 69.2929 40.3734C65.8122 40.3734 63.2341 37.6659 63.2341 34.1847C63.2341 30.7036 65.9412 27.9961 69.2929 27.9961C71.0977 27.9961 72.5157 28.7696 73.5471 29.6723L75.2229 27.9961C73.8048 26.7068 72.0001 25.6754 69.4217 25.6754C64.7809 25.6754 60.7847 29.5433 60.7847 34.1847C60.7847 38.8262 64.7809 42.6941 69.4217 42.6941C72.0001 42.6941 73.8048 41.9206 75.3518 40.2444C76.8988 38.6972 77.4143 36.5054 77.4143 34.8294C77.4143 34.3137 77.4143 33.798 77.2855 33.4112H69.2929ZM83.6022 40.5023C81.9264 40.5023 80.5083 39.0841 80.5083 37.1502C80.5083 35.2162 81.9264 33.798 83.6022 33.798C85.2781 33.798 86.6962 35.0872 86.6962 37.1502C86.6962 39.0841 85.2781 40.5023 83.6022 40.5023ZM83.6022 31.735C80.5083 31.735 78.059 34.0557 78.059 37.279C78.059 40.3734 80.5083 42.8231 83.6022 42.8231C86.6962 42.8231 89.1454 40.5023 89.1454 37.279C89.1454 33.9269 86.6962 31.735 83.6022 31.735ZM95.5912 40.5023C93.9152 40.5023 92.4972 39.0841 92.4972 37.1502C92.4972 35.2162 93.9152 33.798 95.5912 33.798C97.2669 33.798 98.685 35.0872 98.685 37.1502C98.685 39.0841 97.2669 40.5023 95.5912 40.5023ZM95.5912 31.735C92.4971 31.735 90.0479 34.0557 90.0479 37.279C90.0479 40.3734 92.4971 42.8231 95.5912 42.8231C98.685 42.8231 101.134 40.5023 101.134 37.279C101.134 33.9269 98.685 31.735 95.5912 31.735Z" fill="white"/>
<path d="M65.7041 17.8622L64.9767 15.8274L64.6811 14.8383H64.5902L64.2947 15.8274L63.5671 17.8622H65.7041ZM63.7604 13.076H65.511L68.5688 21.2161H66.875L66.2043 19.272H63.0669L62.3964 21.2161H60.7026L63.7604 13.076Z" fill="white"/>
<path d="M69.5234 13.076H71.3083L74.5819 18.533H74.673L74.5819 16.9642V13.076H76.1051V21.2161H74.491L71.0354 15.4521H70.9445L71.0354 17.0211V21.2161H69.5234V13.076Z" fill="white"/>
<path d="M80.4244 19.7608C80.8714 19.7608 81.2655 19.6983 81.6065 19.5731C81.9475 19.4481 82.2318 19.272 82.459 19.0448C82.6863 18.8172 82.8568 18.5427 82.9705 18.2206C83.0842 17.8984 83.141 17.5403 83.141 17.146C83.141 16.7521 83.0842 16.3938 82.9705 16.0719C82.8568 15.7496 82.6863 15.4748 82.459 15.2475C82.2318 15.0201 81.9475 14.8438 81.6065 14.7188C81.2655 14.5938 80.8714 14.5311 80.4244 14.5311H79.2762V19.7608H80.4244ZM77.7417 13.076H80.4925C81.1365 13.076 81.7163 13.1746 82.2318 13.3717C82.747 13.5688 83.1865 13.8474 83.5503 14.2072C83.9141 14.5672 84.1924 14.9973 84.3857 15.4976C84.579 15.9979 84.6757 16.5474 84.6757 17.146C84.6757 17.7525 84.579 18.3056 84.3857 18.8059C84.1924 19.306 83.9141 19.7345 83.5503 20.0907C83.1865 20.4469 82.747 20.7234 82.2318 20.9206C81.7163 21.1177 81.1365 21.2161 80.4925 21.2161H77.7417V13.076Z" fill="white"/>
<path d="M88.8706 16.7481C89.2191 16.7481 89.5053 16.6421 89.7288 16.4299C89.9523 16.2178 90.0641 15.9487 90.0641 15.6226C90.0641 15.4787 90.0396 15.3386 89.9902 15.2019C89.9408 15.0655 89.8669 14.9445 89.7687 14.8383C89.67 14.7321 89.547 14.647 89.3992 14.5825C89.2513 14.5182 89.0827 14.4858 88.8934 14.4858H87.4497V16.7481H88.8706ZM85.915 13.076H88.8819C89.2912 13.076 89.6623 13.1405 89.9958 13.2693C90.3294 13.3983 90.6154 13.5763 90.8542 13.8037C91.0928 14.031 91.2765 14.3019 91.4054 14.6166C91.5342 14.9312 91.5987 15.2742 91.5987 15.6452C91.5987 15.9183 91.5531 16.1741 91.4624 16.4127C91.3713 16.6516 91.2464 16.8675 91.0872 17.0608C90.928 17.2541 90.7423 17.4246 90.5301 17.5724C90.3179 17.7203 90.0944 17.8358 89.8596 17.9192L89.8481 17.9988L92.0306 21.1252V21.2161H90.2687L88.1658 18.1579H87.4497V21.2161H85.915V13.076Z" fill="white"/>
<path d="M96.8162 19.9428C97.1951 19.9428 97.5495 19.8747 97.8792 19.7381C98.2087 19.6018 98.4967 19.4123 98.743 19.1698C98.9893 18.9273 99.1825 18.6336 99.3228 18.2888C99.4629 17.944 99.533 17.5631 99.533 17.1461C99.533 16.7294 99.4629 16.3485 99.3228 16.0036C99.1825 15.6587 98.9893 15.3652 98.743 15.1226C98.4967 14.8801 98.2087 14.6904 97.8792 14.554C97.5495 14.4177 97.1951 14.3495 96.8162 14.3495C96.4374 14.3495 96.083 14.4177 95.7535 14.554C95.4238 14.6904 95.1358 14.8801 94.8895 15.1226C94.6432 15.3652 94.45 15.6587 94.3099 16.0036C94.1694 16.3485 94.0995 16.7294 94.0995 17.1461C94.0995 17.5631 94.1694 17.944 94.3099 18.2888C94.45 18.6336 94.6432 18.9273 94.8895 19.1698C95.1358 19.4123 95.4238 19.6018 95.7535 19.7381C96.083 19.8747 96.4374 19.9428 96.8162 19.9428ZM96.8162 21.3979C96.2098 21.3979 95.6473 21.2881 95.1283 21.0684C94.6092 20.8486 94.16 20.5475 93.7812 20.1645C93.4022 19.7819 93.1049 19.3309 92.889 18.8116C92.673 18.2926 92.5649 17.7371 92.5649 17.1461C92.5649 16.5549 92.673 15.9998 92.889 15.4806C93.1049 14.9615 93.4022 14.5104 93.7812 14.1278C94.16 13.745 94.6092 13.4437 95.1283 13.224C95.6473 13.0043 96.2098 12.8942 96.8162 12.8942C97.4225 12.8942 97.9852 13.0043 98.5043 13.224C99.0233 13.4437 99.4724 13.745 99.8514 14.1278C100.23 14.5104 100.528 14.9615 100.744 15.4806C100.96 15.9998 101.068 16.5549 101.068 17.1461C101.068 17.7371 100.96 18.2926 100.744 18.8116C100.528 19.3309 100.23 19.7819 99.8514 20.1645C99.4724 20.5475 99.0233 20.8486 98.5043 21.0684C97.9852 21.2881 97.4225 21.3979 96.8162 21.3979Z" fill="white"/>
<path d="M102.306 13.076H103.841V21.2161H102.306V13.076Z" fill="white"/>
<path d="M108.16 19.7608C108.607 19.7608 109.001 19.6983 109.343 19.5731C109.684 19.4481 109.968 19.272 110.195 19.0448C110.422 18.8172 110.593 18.5427 110.707 18.2206C110.82 17.8984 110.877 17.5403 110.877 17.146C110.877 16.7521 110.82 16.3938 110.707 16.0719C110.593 15.7496 110.422 15.4748 110.195 15.2475C109.968 15.0201 109.684 14.8438 109.343 14.7188C109.001 14.5938 108.607 14.5311 108.16 14.5311H107.012V19.7608H108.16ZM105.478 13.076H108.228C108.873 13.076 109.452 13.1746 109.968 13.3717C110.483 13.5688 110.923 13.8474 111.286 14.2072C111.65 14.5672 111.929 14.9973 112.122 15.4976C112.315 15.9979 112.412 16.5474 112.412 17.146C112.412 17.7525 112.315 18.3056 112.122 18.8059C111.929 19.306 111.65 19.7345 111.286 20.0907C110.923 20.4469 110.483 20.7234 109.968 20.9206C109.452 21.1177 108.873 21.2161 108.228 21.2161H105.478V13.076Z" fill="white"/>
<path d="M120.13 17.8622L119.402 15.8274L119.107 14.8383H119.016L118.72 15.8274L117.993 17.8622H120.13ZM118.186 13.076H119.937L122.995 21.2161H121.301L120.63 19.272H117.493L116.822 21.2161H115.128L118.186 13.076Z" fill="white"/>
<path d="M126.836 16.7709C127.238 16.7709 127.541 16.6571 127.746 16.4299C127.95 16.2025 128.053 15.9411 128.053 15.6452C128.053 15.5014 128.028 15.3612 127.979 15.2247C127.93 15.0883 127.854 14.9689 127.752 14.8667C127.649 14.7643 127.522 14.6829 127.371 14.6222C127.219 14.5617 127.041 14.5311 126.836 14.5311H125.484V16.7709H126.836ZM123.949 21.2161V13.076H126.814C127.2 13.076 127.562 13.1385 127.899 13.2635C128.236 13.3886 128.53 13.565 128.78 13.7924C129.031 14.0196 129.227 14.2906 129.371 14.6053C129.515 14.9197 129.587 15.2664 129.587 15.6452C129.587 16.032 129.515 16.3825 129.371 16.6971C129.227 17.0116 129.031 17.2825 128.78 17.5099C128.53 17.7371 128.236 17.9134 127.899 18.0386C127.562 18.1637 127.2 18.226 126.814 18.226H125.484V21.2161H123.949Z" fill="white"/>
<path d="M133.566 16.7709C133.967 16.7709 134.27 16.6571 134.475 16.4299C134.68 16.2025 134.782 15.9411 134.782 15.6452C134.782 15.5014 134.757 15.3612 134.708 15.2247C134.659 15.0883 134.583 14.9689 134.481 14.8667C134.378 14.7643 134.251 14.6829 134.1 14.6222C133.948 14.5617 133.77 14.5311 133.566 14.5311H132.213V16.7709H133.566ZM130.678 21.2161V13.076H133.543C133.929 13.076 134.291 13.1385 134.628 13.2635C134.965 13.3886 135.259 13.565 135.51 13.7924C135.76 14.0196 135.956 14.2906 136.1 14.6053C136.244 14.9197 136.317 15.2664 136.317 15.6452C136.317 16.032 136.244 16.3825 136.1 16.6971C135.956 17.0116 135.76 17.2825 135.51 17.5099C135.259 17.7371 134.965 17.9134 134.628 18.0386C134.291 18.1637 133.929 18.226 133.543 18.226H132.213V21.2161H130.678Z" fill="white"/>
<path d="M143.535 19.9428C143.913 19.9428 144.268 19.8747 144.597 19.7381C144.927 19.6018 145.215 19.4123 145.461 19.1698C145.707 18.9273 145.901 18.6336 146.041 18.2888C146.181 17.944 146.251 17.5631 146.251 17.1461C146.251 16.7294 146.181 16.3485 146.041 16.0036C145.901 15.6587 145.707 15.3652 145.461 15.1226C145.215 14.8801 144.927 14.6904 144.597 14.554C144.268 14.4177 143.913 14.3495 143.535 14.3495C143.155 14.3495 142.801 14.4177 142.472 14.554C142.142 14.6904 141.854 14.8801 141.608 15.1226C141.362 15.3652 141.168 15.6587 141.028 16.0036C140.888 16.3485 140.818 16.7294 140.818 17.1461C140.818 17.5631 140.888 17.944 141.028 18.2888C141.168 18.6336 141.362 18.9273 141.608 19.1698C141.854 19.4123 142.142 19.6018 142.472 19.7381C142.801 19.8747 143.155 19.9428 143.535 19.9428ZM143.535 21.3979C142.928 21.3979 142.365 21.2881 141.846 21.0684C141.327 20.8486 140.878 20.5475 140.499 20.1645C140.12 19.7819 139.823 19.3309 139.607 18.8116C139.391 18.2926 139.283 17.7371 139.283 17.1461C139.283 16.5549 139.391 15.9998 139.607 15.4806C139.823 14.9615 140.12 14.5104 140.499 14.1278C140.878 13.745 141.327 13.4437 141.846 13.224C142.365 13.0043 142.928 12.8942 143.535 12.8942C144.141 12.8942 144.703 13.0043 145.222 13.224C145.741 13.4437 146.19 13.745 146.57 14.1278C146.948 14.5104 147.246 14.9615 147.462 15.4806C147.678 15.9998 147.786 16.5549 147.786 17.1461C147.786 17.7371 147.678 18.2926 147.462 18.8116C147.246 19.3309 146.948 19.7819 146.57 20.1645C146.19 20.5475 145.741 20.8486 145.222 21.0684C144.703 21.2881 144.141 21.3979 143.535 21.3979Z" fill="white"/>
<path d="M149.025 13.076H150.81L154.083 18.533H154.174L154.083 16.9642V13.076H155.606V21.2161H153.992L150.537 15.4521H150.446L150.537 17.0211V21.2161H149.025V13.076Z" fill="white"/>
<path fill-rule="evenodd" clip-rule="evenodd" d="M48.225 22.6183L28.0342 11L43.983 26.8683L48.225 22.6183Z" fill="white"/>
<path fill-rule="evenodd" clip-rule="evenodd" d="M26.1609 11.1187C26.0839 11.2587 26 11.4202 26 11.5984V44.4747C26 44.5779 26.0537 44.6752 26.0812 44.7666L42.9712 27.8441L26.1609 11.1187Z" fill="white"/>
<path fill-rule="evenodd" clip-rule="evenodd" d="M43.9861 28.8165L27.4272 45.4071C27.4756 45.3885 27.5236 45.3668 27.5707 45.3398L48.493 33.3007L43.9861 28.8165Z" fill="white"/>
<path fill-rule="evenodd" clip-rule="evenodd" d="M56.1383 27.1717L49.4624 23.3302L44.9604 27.8408L49.7317 32.5881L56.1383 28.9017C56.8053 28.5179 56.8053 27.5554 56.1383 27.1717Z" fill="white"/>
</svg>
