<svg width="181" height="159" viewBox="0 0 181 159" fill="none" xmlns="http://www.w3.org/2000/svg">
<path d="M162.332 74.3735C157.827 48.6742 151.904 -3.49526 71.572 8.84041C-28.8436 24.26 19.4331 159.181 85.0894 153.399C150.746 147.617 187.436 99.4306 171.988 70.5188C156.539 41.607 146.884 14.1696 100.538 6.92692C63.4616 1.13277 15.5711 6.92681 5.91577 70.5188" stroke="white" stroke-width="10.0127" stroke-linecap="round"/>
<path d="M112.767 65.3131L72.5033 51.0521C70.4627 50.3293 68.381 52.0235 68.6742 54.1683L74.5769 97.354C74.8853 99.6103 77.5603 100.641 79.3025 99.174L113.664 70.2493C115.373 68.8104 114.873 66.0591 112.767 65.3131Z" fill="white"/>
</svg>
