<svg width="24" height="25" viewBox="0 0 24 25" fill="none" xmlns="http://www.w3.org/2000/svg">
<path d="M11.2488 23.8774C10.9663 23.5949 10.8184 23.2353 10.805 22.7987C10.7916 22.3621 10.9267 22.0026 11.2103 21.7201L18.7608 14.1695H1.54093C1.10434 14.1695 0.738111 14.0216 0.442252 13.7257C0.146394 13.4299 -0.00102195 13.0642 5.33192e-06 12.6286C5.33192e-06 12.192 0.147935 11.8258 0.443793 11.5299C0.739651 11.2341 1.10537 11.0866 1.54093 11.0877H18.7608L11.2103 3.53711C10.9278 3.25461 10.7927 2.89506 10.805 2.45846C10.8173 2.02186 10.9653 1.66231 11.2488 1.37981C11.5313 1.09731 11.8908 0.956055 12.3274 0.956055C12.764 0.956055 13.1236 1.09731 13.4061 1.37981L23.5762 11.5499C23.7303 11.6784 23.8397 11.8391 23.9044 12.0323C23.9692 12.2254 24.001 12.4242 24 12.6286C24 12.834 23.9681 13.0267 23.9044 13.2064C23.8407 13.3862 23.7313 13.5531 23.5762 13.7072L13.4061 23.8774C13.1236 24.1599 12.764 24.3011 12.3274 24.3011C11.8908 24.3011 11.5313 24.1599 11.2488 23.8774Z" fill="#EE5646"/>
</svg>
